<svg width="169" height="43" viewBox="0 0 169 43" fill="none" xmlns="http://www.w3.org/2000/svg">
<path d="M8.2122 31.2264C6.82929 31.2264 5.59794 30.9896 4.51813 30.516C3.43833 30.0424 2.58585 29.3983 1.9607 28.5837C1.33555 27.7501 0.985086 26.8219 0.90931 25.7989H5.7116C5.76843 26.3483 6.02418 26.7935 6.47883 27.1345C6.93349 27.4754 7.49233 27.6459 8.15537 27.6459C8.76158 27.6459 9.2257 27.5323 9.54775 27.305C9.88874 27.0587 10.0592 26.7461 10.0592 26.3672C10.0592 25.9126 9.82244 25.5811 9.34884 25.3727C8.87524 25.1453 8.10801 24.8991 7.04715 24.6339C5.91051 24.3686 4.96332 24.094 4.20556 23.8098C3.4478 23.5067 2.79423 23.0426 2.24486 22.4174C1.69548 21.7733 1.4208 20.9114 1.4208 19.8316C1.4208 18.9223 1.66707 18.0982 2.15961 17.3594C2.6711 16.6016 3.40991 16.0049 4.37605 15.5692C5.36114 15.1335 6.52619 14.9156 7.87121 14.9156C9.86033 14.9156 11.4232 15.4082 12.5598 16.3932C13.7154 17.3783 14.3785 18.6855 14.549 20.3146H10.0592C9.98346 19.7653 9.73719 19.3295 9.32042 19.0075C8.9226 18.6855 8.39217 18.5244 7.72913 18.5244C7.16081 18.5244 6.7251 18.6381 6.422 18.8654C6.1189 19.0738 5.96735 19.3674 5.96735 19.7463C5.96735 20.201 6.20414 20.542 6.67774 20.7693C7.17029 20.9966 7.92804 21.2239 8.95102 21.4513C10.1255 21.7544 11.0822 22.0575 11.821 22.3606C12.5598 22.6447 13.2039 23.1183 13.7533 23.7814C14.3216 24.4255 14.6153 25.2969 14.6342 26.3956C14.6342 27.3239 14.369 28.1574 13.8386 28.8962C13.3271 29.6161 12.5788 30.1844 11.5937 30.6012C10.6276 31.018 9.50039 31.2264 8.2122 31.2264ZM32.6959 15.1429V30.999H27.8367V28.8394C27.3442 29.5403 26.6717 30.1087 25.8192 30.5444C24.9857 30.9611 24.0574 31.1695 23.0344 31.1695C21.822 31.1695 20.7517 30.9043 19.8234 30.3739C18.8952 29.8245 18.1753 29.0383 17.6638 28.0154C17.1523 26.9924 16.8966 25.7894 16.8966 24.4065V15.1429H21.7273V23.753C21.7273 24.8138 22.002 25.6379 22.5514 26.2251C23.1007 26.8124 23.8396 27.106 24.7678 27.106C25.715 27.106 26.4633 26.8124 27.0127 26.2251C27.562 25.6379 27.8367 24.8138 27.8367 23.753V15.1429H32.6959ZM40.4769 17.3878C40.9505 16.649 41.6041 16.0522 42.4376 15.5976C43.2712 15.1429 44.2468 14.9156 45.3645 14.9156C46.6716 14.9156 47.8556 15.2471 48.9165 15.9102C49.9773 16.5732 50.8109 17.5204 51.4171 18.7518C52.0422 19.9831 52.3548 21.4134 52.3548 23.0426C52.3548 24.6717 52.0422 26.1115 51.4171 27.3618C50.8109 28.5931 49.9773 29.5498 48.9165 30.2318C47.8556 30.8948 46.6716 31.2264 45.3645 31.2264C44.2657 31.2264 43.2901 30.999 42.4376 30.5444C41.6041 30.0897 40.9505 29.5025 40.4769 28.7826V38.5577H35.6178V15.1429H40.4769V17.3878ZM47.4104 23.0426C47.4104 21.8302 47.0694 20.883 46.3875 20.201C45.7244 19.5 44.9004 19.1496 43.9153 19.1496C42.9491 19.1496 42.1251 19.5 41.4431 20.201C40.78 20.9019 40.4485 21.8586 40.4485 23.071C40.4485 24.2834 40.78 25.2401 41.4431 25.941C42.1251 26.6419 42.9491 26.9924 43.9153 26.9924C44.8814 26.9924 45.7055 26.6419 46.3875 25.941C47.0694 25.2211 47.4104 24.255 47.4104 23.0426ZM69.2825 22.8152C69.2825 23.2699 69.2541 23.7435 69.1972 24.236H58.2003C58.276 25.2211 58.5886 25.9789 59.138 26.5093C59.7063 27.0208 60.3978 27.2765 61.2123 27.2765C62.4248 27.2765 63.2678 26.765 63.7414 25.7421H68.9131C68.6479 26.784 68.1648 27.7217 67.4639 28.5553C66.7819 29.3888 65.9199 30.0424 64.878 30.516C63.8361 30.9896 62.671 31.2264 61.3828 31.2264C59.8294 31.2264 58.4465 30.8948 57.2341 30.2318C56.0217 29.5688 55.0745 28.6216 54.3925 27.3902C53.7105 26.1588 53.3696 24.7191 53.3696 23.071C53.3696 21.4229 53.7011 19.9831 54.3641 18.7518C55.0461 17.5204 55.9933 16.5732 57.2057 15.9102C58.4181 15.2471 59.8105 14.9156 61.3828 14.9156C62.9173 14.9156 64.2813 15.2377 65.4747 15.8817C66.6682 16.5258 67.5965 17.4446 68.2595 18.6381C68.9415 19.8316 69.2825 21.2239 69.2825 22.8152ZM64.3097 21.5365C64.3097 20.703 64.0255 20.0399 63.4572 19.5474C62.8889 19.0549 62.1785 18.8086 61.326 18.8086C60.5114 18.8086 59.82 19.0454 59.2516 19.519C58.7023 19.9926 58.3613 20.6651 58.2287 21.5365H64.3097ZM76.1367 17.7856C76.705 16.9142 77.4154 16.2322 78.2679 15.7397C79.1204 15.2282 80.0676 14.9724 81.1095 14.9724V20.1157H79.7739C78.5615 20.1157 77.6522 20.3809 77.046 20.9114C76.4398 21.4229 76.1367 22.3322 76.1367 23.6393V30.999H71.2776V15.1429H76.1367V17.7856ZM92.5251 14.9724C94.3817 14.9724 95.8593 15.5786 96.958 16.7911C98.0757 17.9845 98.6346 19.6327 98.6346 21.7354V30.999H93.8039V22.389C93.8039 21.3281 93.5292 20.5041 92.9798 19.9168C92.4304 19.3295 91.6916 19.0359 90.7634 19.0359C89.8351 19.0359 89.0963 19.3295 88.5469 19.9168C87.9975 20.5041 87.7229 21.3281 87.7229 22.389V30.999H82.8637V15.1429H87.7229V17.2457C88.2154 16.5448 88.8784 15.9954 89.712 15.5976C90.5455 15.1808 91.4832 14.9724 92.5251 14.9724ZM108.661 31.2264C107.107 31.2264 105.705 30.8948 104.455 30.2318C103.224 29.5688 102.248 28.6216 101.528 27.3902C100.827 26.1588 100.477 24.7191 100.477 23.071C100.477 21.4418 100.837 20.0115 101.557 18.7802C102.276 17.5299 103.261 16.5732 104.512 15.9102C105.762 15.2471 107.164 14.9156 108.717 14.9156C110.271 14.9156 111.673 15.2471 112.923 15.9102C114.173 16.5732 115.158 17.5299 115.878 18.7802C116.598 20.0115 116.958 21.4418 116.958 23.071C116.958 24.7002 116.589 26.1399 115.85 27.3902C115.13 28.6216 114.135 29.5688 112.866 30.2318C111.616 30.8948 110.214 31.2264 108.661 31.2264ZM108.661 27.0208C109.589 27.0208 110.375 26.6798 111.019 25.9978C111.682 25.3158 112.014 24.3402 112.014 23.071C112.014 21.8017 111.692 20.8261 111.047 20.1441C110.422 19.4622 109.646 19.1212 108.717 19.1212C107.77 19.1212 106.984 19.4622 106.359 20.1441C105.734 20.8072 105.421 21.7828 105.421 23.071C105.421 24.3402 105.724 25.3158 106.33 25.9978C106.956 26.6798 107.732 27.0208 108.661 27.0208ZM126.1 26.4525L129.538 15.1429H134.71L129.084 30.999H123.088L117.461 15.1429H122.662L126.1 26.4525ZM135.221 23.0426C135.221 21.4134 135.524 19.9831 136.13 18.7518C136.755 17.5204 137.598 16.5732 138.659 15.9102C139.72 15.2471 140.904 14.9156 142.211 14.9156C143.329 14.9156 144.304 15.1429 145.138 15.5976C145.99 16.0522 146.644 16.649 147.099 17.3878V15.1429H151.958V30.999H147.099V28.7542C146.625 29.493 145.962 30.0897 145.109 30.5444C144.276 30.999 143.3 31.2264 142.183 31.2264C140.894 31.2264 139.72 30.8948 138.659 30.2318C137.598 29.5498 136.755 28.5931 136.13 27.3618C135.524 26.1115 135.221 24.6717 135.221 23.0426ZM147.099 23.071C147.099 21.8586 146.758 20.9019 146.076 20.201C145.413 19.5 144.598 19.1496 143.632 19.1496C142.666 19.1496 141.842 19.5 141.16 20.201C140.497 20.883 140.165 21.8302 140.165 23.0426C140.165 24.255 140.497 25.2211 141.16 25.941C141.842 26.6419 142.666 26.9924 143.632 26.9924C144.598 26.9924 145.413 26.6419 146.076 25.941C146.758 25.2401 147.099 24.2834 147.099 23.071ZM161.355 31.2264C159.972 31.2264 158.741 30.9896 157.661 30.516C156.581 30.0424 155.729 29.3983 155.104 28.5837C154.479 27.7501 154.128 26.8219 154.052 25.7989H158.855C158.911 26.3483 159.167 26.7935 159.622 27.1345C160.076 27.4754 160.635 27.6459 161.298 27.6459C161.905 27.6459 162.369 27.5323 162.691 27.305C163.032 27.0587 163.202 26.7461 163.202 26.3672C163.202 25.9126 162.965 25.5811 162.492 25.3727C162.018 25.1453 161.251 24.8991 160.19 24.6339C159.054 24.3686 158.106 24.094 157.349 23.8098C156.591 23.5067 155.937 23.0426 155.388 22.4174C154.838 21.7733 154.564 20.9114 154.564 19.8316C154.564 18.9223 154.81 18.0982 155.303 17.3594C155.814 16.6016 156.553 16.0049 157.519 15.5692C158.504 15.1335 159.669 14.9156 161.014 14.9156C163.003 14.9156 164.566 15.4082 165.703 16.3932C166.858 17.3783 167.521 18.6855 167.692 20.3146H163.202C163.126 19.7653 162.88 19.3295 162.463 19.0075C162.066 18.6855 161.535 18.5244 160.872 18.5244C160.304 18.5244 159.868 18.6381 159.565 18.8654C159.262 19.0738 159.11 19.3674 159.11 19.7463C159.11 20.201 159.347 20.542 159.821 20.7693C160.313 20.9966 161.071 21.2239 162.094 21.4513C163.269 21.7544 164.225 22.0575 164.964 22.3606C165.703 22.6447 166.347 23.1183 166.896 23.7814C167.465 24.4255 167.758 25.2969 167.777 26.3956C167.777 27.3239 167.512 28.1574 166.982 28.8962C166.47 29.6161 165.722 30.1844 164.737 30.6012C163.771 31.018 162.643 31.2264 161.355 31.2264Z" fill="#000" fill-opacity="0.9"/>
</svg>
