<svg width="20" height="20" viewBox="0 0 20 20" fill="none" xmlns="http://www.w3.org/2000/svg">
<path d="M17 7.81395C16.7348 7.81395 16.4804 7.91686 16.2929 8.10003C16.1054 8.28321 16 8.53165 16 8.7907V12.0921L14.52 10.6465C13.9974 10.1401 13.2911 9.85596 12.555 9.85596C11.8189 9.85596 11.1126 10.1401 10.59 10.6465L9.89 11.34L7.41 8.90791C6.88742 8.40151 6.18113 8.11735 5.445 8.11735C4.70887 8.11735 4.00258 8.40151 3.48 8.90791L2 10.3633V4.88372C2 4.62467 2.10536 4.37623 2.29289 4.19306C2.48043 4.00988 2.73478 3.90698 3 3.90698H11C11.2652 3.90698 11.5196 3.80407 11.7071 3.62089C11.8946 3.43772 12 3.18928 12 2.93023C12 2.67118 11.8946 2.42274 11.7071 2.23957C11.5196 2.0564 11.2652 1.95349 11 1.95349H3C2.20435 1.95349 1.44129 2.26221 0.87868 2.81173C0.316071 3.36126 0 4.10657 0 4.88372V16.8195C0.00263506 17.5389 0.296373 18.2281 0.817154 18.7367C1.33794 19.2454 2.04351 19.5323 2.78 19.5349H15.22C15.491 19.5328 15.7603 19.4933 16.02 19.4177C16.5974 19.2595 17.1058 18.9206 17.4671 18.453C17.8283 17.9855 18.0226 17.4151 18.02 16.8293V8.7907C18.02 8.66077 17.9935 8.53214 17.942 8.41234C17.8905 8.29255 17.8151 8.18399 17.7201 8.09303C17.6251 8.00208 17.5125 7.93054 17.3888 7.88262C17.2652 7.8347 17.133 7.81135 17 7.81395ZM3 17.5814C2.73478 17.5814 2.48043 17.4785 2.29289 17.2953C2.10536 17.1121 2 16.8637 2 16.6046V13.1177L4.89 10.2949C5.03615 10.1529 5.23389 10.0732 5.44 10.0732C5.64611 10.0732 5.84385 10.1529 5.99 10.2949L13.46 17.5814H3ZM16 16.6046C15.9936 16.7938 15.931 16.977 15.82 17.1321L11.3 12.6977L12.01 12.014C12.0817 11.9425 12.1673 11.8857 12.2617 11.8469C12.3561 11.8082 12.4576 11.7882 12.56 11.7882C12.6624 11.7882 12.7639 11.8082 12.8583 11.8469C12.9527 11.8857 13.0383 11.9425 13.11 12.014L16 14.8563V16.6046ZM19 1.95349H18V0.976744C18 0.717695 17.8946 0.469257 17.7071 0.286082C17.5196 0.102907 17.2652 0 17 0C16.7348 0 16.4804 0.102907 16.2929 0.286082C16.1054 0.469257 16 0.717695 16 0.976744V1.95349H15C14.7348 1.95349 14.4804 2.0564 14.2929 2.23957C14.1054 2.42274 14 2.67118 14 2.93023C14 3.18928 14.1054 3.43772 14.2929 3.62089C14.4804 3.80407 14.7348 3.90698 15 3.90698H16V4.88372C16 5.14277 16.1054 5.39121 16.2929 5.57438C16.4804 5.75756 16.7348 5.86046 17 5.86046C17.2652 5.86046 17.5196 5.75756 17.7071 5.57438C17.8946 5.39121 18 5.14277 18 4.88372V3.90698H19C19.2652 3.90698 19.5196 3.80407 19.7071 3.62089C19.8946 3.43772 20 3.18928 20 2.93023C20 2.67118 19.8946 2.42274 19.7071 2.23957C19.5196 2.0564 19.2652 1.95349 19 1.95349Z" fill="black"/>
</svg>
