<svg width="199" height="38" viewBox="0 0 199 38" fill="none" xmlns="http://www.w3.org/2000/svg">
<rect x="0.5" y="0.5" width="198" height="37" rx="18.5" fill="white" stroke="#727272"/>
<path d="M58.3604 23.7718C58.2923 23.6357 58.2344 23.4791 58.1868 23.3021C58.1391 23.1251 58.0983 22.9379 58.0643 22.7405C57.9077 22.9107 57.7273 23.0707 57.5231 23.2204C57.3189 23.3702 57.0908 23.5029 56.839 23.6186C56.5939 23.7276 56.3216 23.8126 56.0221 23.8739C55.7226 23.942 55.3992 23.976 55.0521 23.976C54.4871 23.976 53.9663 23.8943 53.4898 23.731C53.0201 23.5676 52.6151 23.3395 52.2747 23.0468C51.9344 22.7541 51.6689 22.407 51.4783 22.0053C51.2877 21.5969 51.1924 21.1544 51.1924 20.6779C51.1924 19.5139 51.6247 18.6154 52.4892 17.9823C53.3605 17.3424 54.6573 17.0225 56.3795 17.0225H57.9621V16.369C57.9621 15.838 57.7886 15.4194 57.4414 15.1131C57.0942 14.7999 56.5939 14.6434 55.9404 14.6434C55.3618 14.6434 54.9398 14.7693 54.6743 15.0212C54.4088 15.2662 54.2761 15.5964 54.2761 16.0116H51.4375C51.4375 15.5419 51.5396 15.096 51.7438 14.674C51.9548 14.2519 52.2577 13.881 52.6525 13.561C53.0542 13.2411 53.5409 12.9892 54.1127 12.8054C54.6913 12.6148 55.3516 12.5195 56.0936 12.5195C56.7607 12.5195 57.3801 12.6012 57.9519 12.7646C58.5305 12.928 59.0309 13.1696 59.4529 13.4895C59.875 13.8095 60.2051 14.2145 60.4434 14.7046C60.6816 15.1879 60.8007 15.7495 60.8007 16.3894V21.1272C60.8007 21.7194 60.8382 22.2096 60.9131 22.5976C60.9879 22.9856 61.0969 23.3191 61.2398 23.5982V23.7718H58.3604ZM55.6545 21.7807C55.9404 21.7807 56.2059 21.7467 56.4509 21.6786C56.696 21.6105 56.9172 21.522 57.1147 21.4131C57.3121 21.3042 57.4822 21.1817 57.6252 21.0455C57.7681 20.9026 57.8805 20.7596 57.9621 20.6167V18.7175H56.5122C56.0697 18.7175 55.6919 18.7617 55.3788 18.8502C55.0657 18.9319 54.8104 19.051 54.613 19.2076C54.4156 19.3573 54.2692 19.5411 54.1739 19.759C54.0786 19.97 54.031 20.2014 54.031 20.4533C54.031 20.8345 54.1637 21.151 54.4292 21.4029C54.7015 21.6548 55.1099 21.7807 55.6545 21.7807Z" fill="#222326"/>
<path d="M71.9508 12.5195C72.3797 12.5195 72.7745 12.5502 73.1353 12.6114C73.5029 12.6659 73.799 12.7272 74.0236 12.7952L73.605 15.6236C73.2306 15.5351 72.846 15.4704 72.4512 15.4296C72.0631 15.3819 71.6922 15.3581 71.3382 15.3581C70.5417 15.3581 69.9019 15.5113 69.4185 15.8176C68.942 16.1239 68.5847 16.563 68.3464 17.1348V23.7718H65.5078V12.7238H68.1524L68.2852 14.531C68.7344 13.9048 69.2722 13.4147 69.8985 13.0607C70.5247 12.6999 71.2088 12.5195 71.9508 12.5195Z" fill="#222326"/>
<path d="M83.642 20.3112L84.6018 12.7246H87.2055L85.2246 23.7727H82.7332L81.2833 16.7477L79.8844 23.7727H77.393L75.4121 12.7246H78.0056L78.9654 20.3419L80.3541 12.7246H82.2533L83.642 20.3112Z" fill="#222326"/>
<path d="M94.4956 23.976C93.6447 23.976 92.8721 23.8365 92.1778 23.5574C91.4835 23.2783 90.8878 22.9005 90.3909 22.424C89.894 21.9407 89.5094 21.3757 89.2371 20.729C88.9716 20.0755 88.8389 19.3778 88.8389 18.6358V18.2273C88.8389 17.3833 88.9716 16.614 89.2371 15.9197C89.5026 15.2186 89.8736 14.6161 90.3501 14.1124C90.8266 13.6087 91.3916 13.2173 92.0451 12.9382C92.6985 12.6591 93.4099 12.5195 94.1791 12.5195C94.9755 12.5195 95.6835 12.6523 96.303 12.9178C96.9292 13.1764 97.4568 13.544 97.8856 14.0205C98.3213 14.497 98.6514 15.0722 98.8761 15.7461C99.1007 16.4132 99.213 17.1518 99.213 17.9619V19.1667H91.7183C91.7728 19.5411 91.8817 19.8849 92.0451 20.198C92.2152 20.5044 92.4297 20.7698 92.6883 20.9945C92.947 21.2191 93.2431 21.3927 93.5767 21.5152C93.9102 21.6378 94.2744 21.699 94.6692 21.699C94.9483 21.699 95.224 21.6718 95.4963 21.6173C95.7754 21.5629 96.0409 21.4846 96.2927 21.3825C96.5446 21.2736 96.7795 21.1408 96.9973 20.9843C97.2151 20.8277 97.4057 20.6439 97.5691 20.4329L98.9884 21.9645C98.8114 22.2164 98.58 22.4648 98.2941 22.7099C98.015 22.9481 97.6814 23.1626 97.2934 23.3532C96.9122 23.537 96.4867 23.6867 96.017 23.8024C95.5474 23.9182 95.0402 23.976 94.4956 23.976ZM94.1587 14.8169C93.8387 14.8169 93.546 14.8748 93.2806 14.9905C93.0151 15.0994 92.7802 15.2594 92.576 15.4704C92.3786 15.6815 92.2118 15.9333 92.0757 16.226C91.9395 16.5187 91.8374 16.8455 91.7694 17.2063H96.4255V16.9816C96.4119 16.6821 96.354 16.3996 96.2519 16.1341C96.1498 15.8687 96.0034 15.6406 95.8128 15.45C95.6222 15.2526 95.3874 15.0994 95.1083 14.9905C94.836 14.8748 94.5195 14.8169 94.1587 14.8169Z" fill="#222326"/>
<path d="M108.597 23.7718C108.529 23.6357 108.471 23.4791 108.423 23.3021C108.376 23.1251 108.335 22.9379 108.301 22.7405C108.144 22.9107 107.964 23.0707 107.76 23.2204C107.555 23.3702 107.327 23.5029 107.076 23.6186C106.83 23.7276 106.558 23.8126 106.259 23.8739C105.959 23.942 105.636 23.976 105.289 23.976C104.724 23.976 104.203 23.8943 103.726 23.731C103.257 23.5676 102.851 23.3395 102.511 23.0468C102.171 22.7541 101.905 22.407 101.715 22.0053C101.524 21.5969 101.429 21.1544 101.429 20.6779C101.429 19.5139 101.861 18.6154 102.725 17.9823C103.597 17.3424 104.894 17.0225 106.616 17.0225H108.199V16.369C108.199 15.838 108.025 15.4194 107.678 15.1131C107.331 14.7999 106.83 14.6434 106.177 14.6434C105.598 14.6434 105.176 14.7693 104.911 15.0212C104.645 15.2662 104.513 15.5964 104.513 16.0116H101.674C101.674 15.5419 101.776 15.096 101.98 14.674C102.191 14.2519 102.494 13.881 102.889 13.561C103.291 13.2411 103.777 12.9892 104.349 12.8054C104.928 12.6148 105.588 12.5195 106.33 12.5195C106.997 12.5195 107.617 12.6012 108.189 12.7646C108.767 12.928 109.267 13.1696 109.689 13.4895C110.112 13.8095 110.442 14.2145 110.68 14.7046C110.918 15.1879 111.037 15.7495 111.037 16.3894V21.1272C111.037 21.7194 111.075 22.2096 111.15 22.5976C111.225 22.9856 111.333 23.3191 111.476 23.5982V23.7718H108.597ZM105.891 21.7807C106.177 21.7807 106.442 21.7467 106.688 21.6786C106.933 21.6105 107.154 21.522 107.351 21.4131C107.549 21.3042 107.719 21.1817 107.862 21.0455C108.005 20.9026 108.117 20.7596 108.199 20.6167V18.7175H106.749C106.306 18.7175 105.929 18.7617 105.615 18.8502C105.302 18.9319 105.047 19.051 104.85 19.2076C104.652 19.3573 104.506 19.5411 104.411 19.759C104.315 19.97 104.268 20.2014 104.268 20.4533C104.268 20.8345 104.4 21.151 104.666 21.4029C104.938 21.6548 105.347 21.7807 105.891 21.7807Z" fill="#222326"/>
<path d="M118.951 20.495L119.094 21.2915L119.237 20.5257L121.667 12.7246H124.628L120.431 23.7727H117.766L113.549 12.7246H116.51L118.951 20.495Z" fill="#222326"/>
<path d="M132.174 23.976C131.323 23.976 130.55 23.8365 129.856 23.5574C129.161 23.2783 128.566 22.9005 128.069 22.424C127.572 21.9407 127.187 21.3757 126.915 20.729C126.65 20.0755 126.517 19.3778 126.517 18.6358V18.2273C126.517 17.3833 126.65 16.614 126.915 15.9197C127.181 15.2186 127.552 14.6161 128.028 14.1124C128.505 13.6087 129.07 13.2173 129.723 12.9382C130.377 12.6591 131.088 12.5195 131.857 12.5195C132.654 12.5195 133.361 12.6523 133.981 12.9178C134.607 13.1764 135.135 13.544 135.564 14.0205C135.999 14.497 136.329 15.0722 136.554 15.7461C136.779 16.4132 136.891 17.1518 136.891 17.9619V19.1667H129.396C129.451 19.5411 129.56 19.8849 129.723 20.198C129.893 20.5044 130.108 20.7698 130.366 20.9945C130.625 21.2191 130.921 21.3927 131.255 21.5152C131.588 21.6378 131.952 21.699 132.347 21.699C132.626 21.699 132.902 21.6718 133.174 21.6173C133.453 21.5629 133.719 21.4846 133.971 21.3825C134.223 21.2736 134.457 21.1408 134.675 20.9843C134.893 20.8277 135.084 20.6439 135.247 20.4329L136.666 21.9645C136.489 22.2164 136.258 22.4648 135.972 22.7099C135.693 22.9481 135.359 23.1626 134.971 23.3532C134.59 23.537 134.165 23.6867 133.695 23.8024C133.225 23.9182 132.718 23.976 132.174 23.976ZM131.837 14.8169C131.517 14.8169 131.224 14.8748 130.959 14.9905C130.693 15.0994 130.458 15.2594 130.254 15.4704C130.057 15.6815 129.89 15.9333 129.754 16.226C129.618 16.5187 129.515 16.8455 129.447 17.2063H134.103V16.9816C134.09 16.6821 134.032 16.3996 133.93 16.1341C133.828 15.8687 133.681 15.6406 133.491 15.45C133.3 15.2526 133.065 15.0994 132.786 14.9905C132.514 14.8748 132.197 14.8169 131.837 14.8169Z" fill="#222326"/>
<path d="M142.241 22.1288C142.241 21.8633 142.286 21.6182 142.374 21.3936C142.463 21.1621 142.592 20.9647 142.762 20.8014C142.932 20.6312 143.14 20.4984 143.385 20.4031C143.63 20.301 143.906 20.25 144.212 20.25C144.518 20.25 144.794 20.301 145.039 20.4031C145.284 20.4984 145.489 20.6312 145.652 20.8014C145.822 20.9647 145.951 21.1621 146.04 21.3936C146.135 21.6182 146.183 21.8633 146.183 22.1288C146.183 22.3874 146.135 22.6291 146.04 22.8537C145.951 23.0784 145.822 23.2758 145.652 23.446C145.489 23.6093 145.284 23.7387 145.039 23.834C144.794 23.9293 144.518 23.9769 144.212 23.9769C143.906 23.9769 143.63 23.9293 143.385 23.834C143.14 23.7387 142.932 23.6093 142.762 23.446C142.592 23.2758 142.463 23.0784 142.374 22.8537C142.286 22.6291 142.241 22.3874 142.241 22.1288Z" fill="#222326"/>
<path d="M151.544 18.1457C151.544 17.3424 151.659 16.6004 151.891 15.9197C152.122 15.2322 152.459 14.6366 152.902 14.1328C153.351 13.6291 153.895 13.2343 154.535 12.9484C155.182 12.6625 155.921 12.5195 156.751 12.5195C157.581 12.5195 158.32 12.6625 158.967 12.9484C159.613 13.2343 160.158 13.6291 160.6 14.1328C161.05 14.6366 161.39 15.2322 161.622 15.9197C161.853 16.6004 161.969 17.3424 161.969 18.1457V18.3601C161.969 19.1701 161.853 19.9189 161.622 20.6065C161.39 21.2872 161.053 21.8794 160.611 22.3831C160.168 22.8869 159.624 23.2817 158.977 23.5676C158.33 23.8467 157.595 23.9862 156.771 23.9862C155.941 23.9862 155.199 23.8467 154.545 23.5676C153.899 23.2817 153.351 22.8869 152.902 22.3831C152.459 21.8794 152.122 21.2872 151.891 20.6065C151.659 19.9189 151.544 19.1701 151.544 18.3601V18.1457ZM154.382 18.3601C154.382 18.823 154.426 19.2586 154.515 19.6671C154.603 20.0687 154.743 20.4227 154.933 20.729C155.124 21.0285 155.369 21.2668 155.669 21.4437C155.975 21.6207 156.343 21.7092 156.771 21.7092C157.187 21.7092 157.544 21.6207 157.844 21.4437C158.143 21.2668 158.385 21.0285 158.569 20.729C158.759 20.4227 158.899 20.0687 158.987 19.6671C159.076 19.2586 159.12 18.823 159.12 18.3601V18.1457C159.12 17.6964 159.076 17.2709 158.987 16.8693C158.899 16.4677 158.759 16.1137 158.569 15.8074C158.385 15.5011 158.143 15.2594 157.844 15.0824C157.544 14.9054 157.18 14.8169 156.751 14.8169C156.329 14.8169 155.968 14.9054 155.669 15.0824C155.369 15.2594 155.124 15.5011 154.933 15.8074C154.743 16.1137 154.603 16.4677 154.515 16.8693C154.426 17.2709 154.382 17.6964 154.382 18.1457V18.3601Z" fill="#222326"/>
<path d="M172.425 12.5195C172.853 12.5195 173.248 12.5502 173.609 12.6114C173.977 12.6659 174.273 12.7272 174.497 12.7952L174.079 15.6236C173.704 15.5351 173.32 15.4704 172.925 15.4296C172.537 15.3819 172.166 15.3581 171.812 15.3581C171.015 15.3581 170.376 15.5113 169.892 15.8176C169.416 16.1239 169.058 16.563 168.82 17.1348V23.7718H165.982V12.7238H168.626L168.759 14.531C169.208 13.9048 169.746 13.4147 170.372 13.0607C170.998 12.6999 171.683 12.5195 172.425 12.5195Z" fill="#222326"/>
<path d="M176.764 18.1661C176.764 17.3288 176.866 16.563 177.07 15.8687C177.281 15.1743 177.581 14.5787 177.969 14.0818C178.357 13.5848 178.827 13.2002 179.378 12.928C179.929 12.6557 180.552 12.5195 181.247 12.5195C181.893 12.5195 182.448 12.6284 182.911 12.8463C183.374 13.0641 183.769 13.3738 184.095 13.7754L184.208 12.7238H186.791V23.4144C186.791 24.1632 186.662 24.8303 186.403 25.4157C186.151 26.0012 185.794 26.4947 185.331 26.8963C184.875 27.2979 184.324 27.6009 183.677 27.8051C183.037 28.0161 182.329 28.1216 181.553 28.1216C181.219 28.1216 180.862 28.0876 180.481 28.0195C180.1 27.9514 179.722 27.8459 179.347 27.703C178.973 27.56 178.619 27.3762 178.286 27.1516C177.952 26.9337 177.666 26.6717 177.428 26.3653L178.704 24.6397C179.065 25.0482 179.473 25.3579 179.929 25.5689C180.386 25.7867 180.879 25.8957 181.41 25.8957C182.206 25.8957 182.826 25.6812 183.268 25.2524C183.718 24.8303 183.942 24.2279 183.942 23.4451V22.812C183.609 23.1796 183.217 23.4655 182.768 23.6697C182.326 23.8739 181.812 23.976 181.226 23.976C180.539 23.976 179.919 23.8365 179.368 23.5574C178.823 23.2715 178.357 22.8801 177.969 22.3831C177.581 21.8862 177.281 21.2974 177.07 20.6167C176.866 19.9291 176.764 19.1838 176.764 18.3805V18.1661ZM179.613 18.3805C179.613 18.8434 179.657 19.2757 179.746 19.6773C179.841 20.0721 179.984 20.4193 180.175 20.7188C180.365 21.0115 180.607 21.2429 180.9 21.4131C181.192 21.5833 181.539 21.6684 181.941 21.6684C182.438 21.6684 182.846 21.5731 183.166 21.3825C183.493 21.1919 183.752 20.9264 183.942 20.586V15.9095C183.752 15.5623 183.493 15.2969 183.166 15.1131C182.846 14.9225 182.445 14.8272 181.961 14.8272C181.56 14.8272 181.213 14.9157 180.92 15.0926C180.627 15.2628 180.382 15.5011 180.185 15.8074C179.994 16.1069 179.851 16.4609 179.756 16.8693C179.661 17.2709 179.613 17.7032 179.613 18.1661V18.3805Z" fill="#222326"/>
<path d="M19.3756 33.6555C27.4742 33.6555 34.0393 27.0904 34.0393 18.9918C34.0393 10.8933 27.4742 4.32812 19.3756 4.32812C11.2771 4.32812 4.71191 10.8933 4.71191 18.9918C4.71191 27.0904 11.2771 33.6555 19.3756 33.6555Z" stroke="#222326" stroke-width="2.5"/>
<path d="M22.1134 24.2903C22.0422 24.1479 21.9817 23.9841 21.9319 23.799C21.882 23.6138 21.8393 23.418 21.8037 23.2115C21.6399 23.3895 21.4512 23.5569 21.2376 23.7135C21.0239 23.8702 20.7854 24.0091 20.5219 24.1301C20.2656 24.244 19.9807 24.3331 19.6674 24.3971C19.3541 24.4683 19.0159 24.504 18.6527 24.504C18.0617 24.504 17.5169 24.4185 17.0185 24.2476C16.5271 24.0767 16.1034 23.8382 15.7474 23.532C15.3913 23.2258 15.1136 22.8626 14.9142 22.4425C14.7148 22.0152 14.6152 21.5524 14.6152 21.0539C14.6152 19.8362 15.0673 18.8963 15.9717 18.234C16.8832 17.5647 18.2397 17.23 20.0413 17.23H21.6969V16.5464C21.6969 15.9909 21.5153 15.553 21.1521 15.2326C20.789 14.905 20.2656 14.7412 19.582 14.7412C18.9767 14.7412 18.5352 14.873 18.2575 15.1364C17.9798 15.3928 17.8409 15.7382 17.8409 16.1725H14.8715C14.8715 15.6812 14.9783 15.2148 15.1919 14.7733C15.4127 14.3318 15.7296 13.9437 16.1426 13.609C16.5627 13.2743 17.0719 13.0109 17.67 12.8186C18.2753 12.6192 18.966 12.5195 19.7422 12.5195C20.44 12.5195 21.088 12.605 21.6862 12.7759C22.2915 12.9468 22.8148 13.1996 23.2563 13.5342C23.6978 13.8689 24.0432 14.2926 24.2924 14.8053C24.5417 15.3109 24.6663 15.8984 24.6663 16.5677V21.5239C24.6663 22.1434 24.7054 22.6561 24.7838 23.062C24.8621 23.4679 24.976 23.8168 25.1256 24.1087V24.2903H22.1134ZM19.2829 22.2075C19.582 22.2075 19.8597 22.1719 20.116 22.1007C20.3724 22.0294 20.6038 21.9369 20.8103 21.8229C21.0168 21.709 21.1948 21.5808 21.3444 21.4384C21.4939 21.2889 21.6114 21.1393 21.6969 20.9898V19.0031H20.1801C19.7173 19.0031 19.3221 19.0494 18.9945 19.1419C18.6669 19.2274 18.3999 19.352 18.1934 19.5158C17.9869 19.6724 17.8338 19.8647 17.7341 20.0926C17.6344 20.3133 17.5846 20.5554 17.5846 20.8189C17.5846 21.2177 17.7234 21.5488 18.0011 21.8123C18.286 22.0757 18.7132 22.2075 19.2829 22.2075Z" fill="#222326"/>
</svg>
