<svg width="18" height="18" viewBox="0 0 18 18" fill="none" xmlns="http://www.w3.org/2000/svg">
<path d="M2.25 8.25V8.25C2.25 8.92551 2.25 9.26327 2.35513 9.53153C2.51011 9.92699 2.82301 10.2399 3.21847 10.3949C3.48673 10.5 3.82449 10.5 4.5 10.5H4.81415C5.26039 10.5 5.48351 10.5 5.67142 10.5801C5.80783 10.6383 5.9296 10.726 6.02791 10.8371C6.16333 10.99 6.23389 11.2017 6.375 11.625V11.625C6.51611 12.0483 6.58667 12.26 6.72209 12.4129C6.8204 12.524 6.94217 12.6117 7.07858 12.6699C7.26649 12.75 7.48961 12.75 7.93585 12.75H10.0641C10.5104 12.75 10.7335 12.75 10.9214 12.6699C11.0578 12.6117 11.1796 12.524 11.2779 12.4129C11.4133 12.26 11.4839 12.0483 11.625 11.625V11.625C11.7661 11.2017 11.8367 10.99 11.9721 10.8371C12.0704 10.726 12.1922 10.6383 12.3286 10.5801C12.5165 10.5 12.7396 10.5 13.1859 10.5H13.5C14.1755 10.5 14.5133 10.5 14.7815 10.3949C15.177 10.2399 15.4899 9.92699 15.6449 9.53153C15.75 9.26327 15.75 8.92551 15.75 8.25V8.25" stroke="#4A4A4A" stroke-width="1.52485"/>
<path d="M6 6.75L9 9M9 9L12 6.75M9 9L9 1.5" stroke="#4A4A4A" stroke-width="1.52485"/>
<path d="M12 3.75H12.7003C14.1379 3.75 14.8568 3.75 15.3034 4.19662C15.75 4.64324 15.75 5.36206 15.75 6.79971V12.7003C15.75 14.1379 15.75 14.8568 15.3034 15.3034C14.8568 15.75 14.1379 15.75 12.7003 15.75H5.29971C3.86206 15.75 3.14324 15.75 2.69662 15.3034C2.25 14.8568 2.25 14.1379 2.25 12.7003V6.79971C2.25 5.36206 2.25 4.64324 2.69662 4.19662C3.14324 3.75 3.86206 3.75 5.29971 3.75H6" stroke="#4A4A4A" stroke-width="1.52485"/>
</svg>
