<svg width="20" height="20" viewBox="0 0 20 20" fill="none" xmlns="http://www.w3.org/2000/svg">
<path fill-rule="evenodd" clip-rule="evenodd" d="M7.3854 10.7611L4.5847 9.8275C1.65193 8.84991 0.185547 8.36112 0.185547 7.46285C0.185547 6.56458 1.65193 6.07579 4.58469 5.0982L15.1945 1.56161C17.2581 0.873748 18.2898 0.529818 18.8345 1.07446C19.3791 1.6191 19.0352 2.65088 18.3474 4.71444L18.3474 4.71446L18.3473 4.71447L14.8108 15.3243C13.8332 18.257 13.3444 19.7234 12.4461 19.7234C11.5478 19.7234 11.059 18.257 10.0815 15.3243L9.14789 12.5236L14.5736 7.09784C15.0603 6.61114 15.0603 5.82204 14.5736 5.33534C14.0869 4.84864 13.2978 4.84864 12.8111 5.33534L7.3854 10.7611Z" fill="#4A4A4A"/>
</svg>
