<svg width="8" height="8" viewBox="0 0 8 8" fill="none" xmlns="http://www.w3.org/2000/svg">
<path d="M0.447289 0.629906C0.641331 0.435865 0.955934 0.435865 1.14998 0.629906L3.77988 3.25981L6.40979 0.629906C6.60383 0.435865 6.91843 0.435865 7.11247 0.629906C7.30651 0.823948 7.30651 1.13855 7.11247 1.33259L4.48257 3.9625L7.11247 6.5924C7.30651 6.78644 7.30651 7.10105 7.11247 7.29509C6.91843 7.48913 6.60383 7.48913 6.40979 7.29509L3.77988 4.66518L1.14998 7.29509C0.955934 7.48913 0.641331 7.48913 0.447289 7.29509C0.253247 7.10105 0.253247 6.78644 0.447289 6.5924L3.07719 3.9625L0.447289 1.33259C0.253247 1.13855 0.253247 0.823948 0.447289 0.629906Z" fill="#E8E8E8"/>
</svg>
