<svg width="57" height="57" viewBox="0 0 57 57" fill="none" xmlns="http://www.w3.org/2000/svg">
<path d="M28.5006 25.708C26.8442 25.708 25.225 26.1992 23.8477 27.1194C22.4705 28.0397 21.397 29.3477 20.7632 30.878C20.1293 32.4084 19.9634 34.0923 20.2866 35.7169C20.6097 37.3415 21.4074 38.8338 22.5786 40.005C23.7499 41.1763 25.2422 41.9739 26.8668 42.2971C28.4914 42.6202 30.1753 42.4544 31.7056 41.8205C33.236 41.1866 34.5439 40.1132 35.4642 38.7359C36.3845 37.3586 36.8756 35.7394 36.8756 34.083C36.8756 31.8618 35.9933 29.7316 34.4227 28.161C32.8521 26.5904 30.7218 25.708 28.5006 25.708V25.708ZM28.5006 36.8747C27.9485 36.8747 27.4088 36.7109 26.9497 36.4042C26.4906 36.0974 26.1328 35.6614 25.9215 35.1513C25.7102 34.6412 25.6549 34.0799 25.7626 33.5384C25.8703 32.9968 26.1362 32.4994 26.5266 32.109C26.9171 31.7186 27.4145 31.4527 27.956 31.345C28.4976 31.2373 29.0589 31.2925 29.569 31.5038C30.0791 31.7151 30.5151 32.073 30.8218 32.532C31.1286 32.9911 31.2923 33.5309 31.2923 34.083C31.2923 34.8234 30.9982 35.5335 30.4747 36.057C29.9511 36.5806 29.241 36.8747 28.5006 36.8747ZM48.0423 11.7497H39.6673V8.95801C39.6673 6.73682 38.785 4.60661 37.2143 3.03599C35.6437 1.46537 33.5135 0.583008 31.2923 0.583008H25.709C23.4878 0.583008 21.3576 1.46537 19.787 3.03599C18.2163 4.60661 17.334 6.73682 17.334 8.95801V11.7497H8.95898C6.7378 11.7497 4.60758 12.632 3.03697 14.2027C1.46635 15.7733 0.583984 17.9035 0.583984 20.1247V48.0413C0.583984 50.2625 1.46635 52.3927 3.03697 53.9634C4.60758 55.534 6.7378 56.4163 8.95898 56.4163H48.0423C50.2635 56.4163 52.3937 55.534 53.9643 53.9634C55.535 52.3927 56.4173 50.2625 56.4173 48.0413V20.1247C56.4173 17.9035 55.535 15.7733 53.9643 14.2027C52.3937 12.632 50.2635 11.7497 48.0423 11.7497ZM22.9173 8.95801C22.9173 8.21761 23.2114 7.50754 23.735 6.984C24.2585 6.46046 24.9686 6.16634 25.709 6.16634H31.2923C32.0327 6.16634 32.7428 6.46046 33.2663 6.984C33.7899 7.50754 34.084 8.21761 34.084 8.95801V11.7497H22.9173V8.95801ZM6.16732 20.1247C6.16732 19.3843 6.46144 18.6742 6.98498 18.1507C7.50852 17.6271 8.21859 17.333 8.95898 17.333H11.7507C11.7507 18.8138 11.1624 20.2339 10.1153 21.281C9.06825 22.3281 7.64811 22.9163 6.16732 22.9163V20.1247ZM8.95898 50.833C8.21859 50.833 7.50852 50.5389 6.98498 50.0153C6.46144 49.4918 6.16732 48.7817 6.16732 48.0413V45.2497C7.64811 45.2497 9.06825 45.8379 10.1153 46.885C11.1624 47.9321 11.7507 49.3522 11.7507 50.833H8.95898ZM50.834 48.0413C50.834 48.7817 50.5399 49.4918 50.0163 50.0153C49.4928 50.5389 48.7827 50.833 48.0423 50.833H45.2506C45.2506 49.3522 45.8389 47.9321 46.886 46.885C47.933 45.8379 49.3532 45.2497 50.834 45.2497V48.0413ZM50.834 39.6663C47.8724 39.6663 45.0321 40.8428 42.938 42.937C40.8438 45.0311 39.6673 47.8714 39.6673 50.833H17.334C17.334 47.8714 16.1575 45.0311 14.0633 42.937C11.9692 40.8428 9.1289 39.6663 6.16732 39.6663V28.4997C9.1289 28.4997 11.9692 27.3232 14.0633 25.229C16.1575 23.1349 17.334 20.2946 17.334 17.333H39.6673C39.6673 20.2946 40.8438 23.1349 42.938 25.229C45.0321 27.3232 47.8724 28.4997 50.834 28.4997V39.6663ZM50.834 22.9163C49.3532 22.9163 47.933 22.3281 46.886 21.281C45.8389 20.2339 45.2506 18.8138 45.2506 17.333H48.0423C48.7827 17.333 49.4928 17.6271 50.0163 18.1507C50.5399 18.6742 50.834 19.3843 50.834 20.1247V22.9163Z" fill="#2E2E2E"/>
</svg>
