<svg width="60" height="62" viewBox="0 0 60 62" fill="none" xmlns="http://www.w3.org/2000/svg">
<path d="M50.4173 29.484C49.6438 29.484 48.9019 29.7912 48.3549 30.3382C47.8079 30.8852 47.5007 31.6271 47.5007 32.4006V39.3715L43.1257 35.0548C41.5885 33.5789 39.54 32.7547 37.409 32.7547C35.278 32.7547 33.2295 33.5789 31.6923 35.0548L29.6507 37.0965L22.3882 29.834C20.8689 28.3236 18.8137 27.4758 16.6715 27.4758C14.5292 27.4758 12.474 28.3236 10.9548 29.834L6.66732 34.1798V17.8173C6.66732 17.0437 6.97461 16.3019 7.52159 15.7549C8.06857 15.2079 8.81044 14.9006 9.58398 14.9006H27.084C27.8575 14.9006 28.5994 14.5933 29.1464 14.0463C29.6934 13.4994 30.0007 12.7575 30.0007 11.984C30.0007 11.2104 29.6934 10.4685 29.1464 9.92156C28.5994 9.37458 27.8575 9.06729 27.084 9.06729H9.58398C7.26334 9.06729 5.03774 9.98916 3.3968 11.6301C1.75586 13.271 0.833984 15.4966 0.833984 17.8173V52.8173C0.833984 55.1379 1.75586 57.3635 3.3968 59.0045C5.03774 60.6454 7.26334 61.5673 9.58398 61.5673H44.584C46.9046 61.5673 49.1302 60.6454 50.7712 59.0045C52.4121 57.3635 53.334 55.1379 53.334 52.8173V32.4006C53.334 31.6271 53.0267 30.8852 52.4797 30.3382C51.9327 29.7912 51.1909 29.484 50.4173 29.484ZM9.58398 55.7339C8.81044 55.7339 8.06857 55.4267 7.52159 54.8797C6.97461 54.3327 6.66732 53.5908 6.66732 52.8173V42.434L15.0673 33.9173C15.2794 33.6985 15.5333 33.5246 15.8138 33.4059C16.0944 33.2871 16.396 33.2259 16.7007 33.2259C17.0053 33.2259 17.3069 33.2871 17.5875 33.4059C17.868 33.5246 18.1219 33.6985 18.334 33.9173L27.5798 43.1631L40.0048 55.5881L9.58398 55.7339ZM47.5007 52.8173C47.4905 53.3791 47.3184 53.926 47.0048 54.3923L33.7632 41.209L35.8048 39.1965C36.2311 38.7726 36.8078 38.5346 37.409 38.5346C38.0102 38.5346 38.5869 38.7726 39.0132 39.1965L47.5007 47.6256V52.8173ZM58.3507 8.33812L51.2923 1.27979C50.7458 0.736554 50.0066 0.431641 49.2361 0.431641C48.4655 0.431641 47.7263 0.736554 47.1798 1.27979L33.8215 14.6381C33.5406 14.9058 33.316 15.2268 33.1607 15.5824C33.0055 15.938 32.9227 16.321 32.9173 16.709V23.7673C32.9173 24.5408 33.2246 25.2827 33.7716 25.8297C34.3186 26.3767 35.0604 26.684 35.834 26.684H42.8923C43.6575 26.6807 44.3907 26.377 44.934 25.8381L58.2923 12.4798C58.5695 12.2125 58.7911 11.893 58.9442 11.5396C59.0973 11.1863 59.1789 10.8061 59.1844 10.4211C59.1898 10.0361 59.1189 9.65375 58.9758 9.29624C58.8327 8.93873 58.6202 8.61309 58.3507 8.33812ZM41.6673 20.8506H38.7507V17.934L49.2507 7.46312L52.1673 10.3798L41.6673 20.8506Z" fill="#2E2E2E"/>
</svg>
