<svg width="101" height="30" viewBox="0 0 101 30" fill="none" xmlns="http://www.w3.org/2000/svg">
<g clip-path="url(#clip0)">
<path d="M44.3566 5.18677C46.1207 5.18677 47.7409 5.60981 49.217 6.45589C50.7111 7.28397 51.8902 8.42708 52.7543 9.88523C53.6185 11.3254 54.0505 12.9275 54.0505 14.6917C54.0505 16.4558 53.6185 18.058 52.7543 19.4981C51.8902 20.9203 50.7111 22.0454 49.217 22.8735C47.7409 23.6835 46.1207 24.0885 44.3566 24.0885H36.8499V5.18677H44.3566ZM44.3566 20.7402C45.4906 20.7402 46.5258 20.4792 47.4618 19.9572C48.398 19.4171 49.136 18.6791 49.6761 17.7429C50.2342 16.8069 50.5131 15.7808 50.5131 14.6647C50.5131 13.5485 50.2342 12.5224 49.6761 11.5864C49.136 10.6323 48.398 9.88522 47.4618 9.34513C46.5258 8.80511 45.4906 8.53508 44.3566 8.53508H40.3872V20.7402H44.3566Z" fill="white"/>
<path d="M62.6253 10.2363C63.9215 10.2363 65.0826 10.5604 66.1087 11.2084C67.1527 11.8385 67.9629 12.6936 68.5389 13.7737C69.115 14.8538 69.403 16.0509 69.403 17.3651C69.403 17.7971 69.367 18.1931 69.295 18.5531H58.872C59.142 19.5072 59.6191 20.2543 60.3032 20.7944C60.9872 21.3164 61.8603 21.5774 62.9224 21.5774C63.5704 21.5774 64.1915 21.4335 64.7856 21.1454C65.3976 20.8573 65.8567 20.4884 66.1627 20.0383L68.7279 21.5504C68.0978 22.4865 67.2788 23.2066 66.2707 23.7107C65.2806 24.1967 64.1375 24.4397 62.8414 24.4397C61.4012 24.4397 60.1231 24.1337 59.007 23.5216C57.8909 22.9095 57.0269 22.0635 56.4148 20.9834C55.8207 19.9033 55.5237 18.6882 55.5237 17.3381C55.5237 16.0059 55.8207 14.7998 56.4148 13.7197C57.0269 12.6396 57.8729 11.7935 58.953 11.1814C60.0331 10.5514 61.2572 10.2363 62.6253 10.2363ZM66.2707 15.9339C66.1267 15.0698 65.7216 14.3948 65.0555 13.9087C64.4075 13.4047 63.5884 13.1526 62.5983 13.1526C61.9143 13.1526 61.2842 13.2786 60.7082 13.5307C60.1502 13.7827 59.7001 14.1247 59.3581 14.5568C59.016 14.9888 58.836 15.4479 58.818 15.9339H66.2707Z" fill="white"/>
<path d="M78.5296 24.4396C76.6755 24.4396 75.1183 24.0255 73.8582 23.1974C72.598 22.3694 71.716 21.2532 71.2119 19.8491L74.1822 18.094C74.9203 20.0201 76.3965 20.9832 78.6106 20.9832C79.6004 20.9832 80.3658 20.7492 80.9059 20.2811C81.446 19.8131 81.716 19.2731 81.716 18.661C81.716 18.049 81.4193 17.5539 80.825 17.1759C80.2488 16.7978 79.2137 16.3928 77.7195 15.9607C76.5495 15.6007 75.5594 15.2137 74.7492 14.7996C73.9392 14.3676 73.2732 13.7915 72.7511 13.0714C72.247 12.3514 71.995 11.4423 71.995 10.3442C71.995 9.22812 72.2741 8.25602 72.8321 7.42794C73.3901 6.58186 74.1282 5.9428 75.0463 5.51076C75.9824 5.06071 76.9995 4.83569 78.0976 4.83569C79.6279 4.83569 80.9506 5.20473 82.0669 5.9428C83.2013 6.66286 84.0743 7.67997 84.6866 8.9941L81.6619 10.7223C80.96 9.1201 79.7715 8.31902 78.0976 8.31902C77.3416 8.31902 76.7204 8.51704 76.2344 8.91309C75.7483 9.30913 75.5054 9.77716 75.5054 10.3172C75.5054 10.7313 75.6133 11.0823 75.8294 11.3703C76.0634 11.6583 76.4235 11.9193 76.9095 12.1534C77.4135 12.3874 78.1426 12.6485 79.0967 12.9365C80.3391 13.3325 81.3832 13.7466 82.2287 14.1786C83.093 14.6106 83.8042 15.2137 84.3624 15.9877C84.9386 16.7438 85.2259 17.6979 85.2259 18.85C85.2259 19.9841 84.9386 20.9742 84.3624 21.8203C83.7861 22.6664 82.9854 23.3145 81.9586 23.7645C80.9506 24.2145 79.8076 24.4396 78.5296 24.4396Z" fill="white"/>
<path d="M93.5833 24.4666C92.3053 24.4666 91.1175 24.1515 90.0193 23.5215C88.9391 22.8734 88.0748 22.0094 87.4271 20.9293C86.7967 19.8312 86.4819 18.643 86.4819 17.3649C86.4819 16.0867 86.7967 14.9076 87.4271 13.8276C88.0748 12.7294 88.9391 11.8653 90.0193 11.2353C91.1175 10.5872 92.3053 10.2632 93.5833 10.2632C94.8613 10.2632 96.0404 10.5872 97.1206 11.2353C98.2189 11.8653 99.0832 12.7294 99.7128 13.8276C100.361 14.9076 100.685 16.0867 100.685 17.3649C100.685 18.643 100.361 19.8312 99.7128 20.9293C99.0832 22.0094 98.2189 22.8734 97.1206 23.5215C96.0404 24.1515 94.8613 24.4666 93.5833 24.4666ZM93.5566 21.1183C94.2403 21.1183 94.8707 20.9563 95.4469 20.6322C96.0231 20.2902 96.4816 19.8312 96.8239 19.2551C97.1661 18.6791 97.3373 18.049 97.3373 17.3649C97.3373 16.6808 97.1661 16.0508 96.8239 15.4747C96.4816 14.8987 96.0231 14.4396 95.4469 14.0976C94.8707 13.7555 94.2403 13.5845 93.5566 13.5845C92.8728 13.5845 92.2425 13.7555 91.6662 14.0976C91.09 14.4396 90.6316 14.8987 90.2893 15.4747C89.9651 16.0508 89.8034 16.6808 89.8034 17.3649C89.8034 18.049 89.9651 18.6791 90.2893 19.2551C90.6316 19.8312 91.09 20.2902 91.6662 20.6322C92.2425 20.9563 92.8728 21.1183 93.5566 21.1183Z" fill="white"/>
<path d="M0.987549 0.693848V7.92265L20.0138 18.4923L0.987549 29.6135H16.6641C21.6731 29.6135 25.7301 26.0547 25.7301 21.664V15.1559L0.987549 0.693848Z" fill="url(#paint0_linear)"/>
<path d="M0.987549 0.693848L25.7301 15.1559V8.64333C25.7301 4.25264 21.6686 0.693848 16.6641 0.693848H0.987549Z" fill="url(#paint1_linear)"/>
<path d="M14.0033 15.1562L0.987061 22.3851V29.6139L20.0133 18.4927L14.0033 15.1562Z" fill="url(#paint2_linear)"/>
</g>
<defs>
<linearGradient id="paint0_linear" x1="7.06991" y1="7.19762" x2="15.6759" y2="27.9819" gradientUnits="userSpaceOnUse">
<stop stop-color="#0057FF"/>
<stop offset="1" stop-color="#00A3FF"/>
</linearGradient>
<linearGradient id="paint1_linear" x1="11.1071" y1="7.34458" x2="27.1167" y2="3.1156" gradientUnits="userSpaceOnUse">
<stop stop-color="#0283FF"/>
<stop offset="1" stop-color="#01C2FF"/>
</linearGradient>
<linearGradient id="paint2_linear" x1="5.60432" y1="26.9355" x2="28.0262" y2="-2.81673" gradientUnits="userSpaceOnUse">
<stop stop-color="#0157FF"/>
<stop offset="1" stop-color="#00FFFF"/>
</linearGradient>
<clipPath id="clip0">
<rect width="99.6983" height="29.046" fill="white" transform="translate(0.987061 0.693848)"/>
</clipPath>
</defs>
</svg>
