<svg width="18" height="18" viewBox="0 0 18 18" fill="none" xmlns="http://www.w3.org/2000/svg">
<path d="M3.81836 9.6566C3.81836 8.64138 3.81836 8.13377 4.02153 7.68757C4.2247 7.24138 4.60627 6.91103 5.36939 6.25033L6.10965 5.60943C7.48899 4.41522 8.17866 3.81812 9.00018 3.81812C9.8217 3.81812 10.5114 4.41522 11.8907 5.60943L12.631 6.25033C13.3941 6.91103 13.7757 7.24138 13.9788 7.68757C14.182 8.13377 14.182 8.64138 14.182 9.6566V12.8272C14.182 14.2371 14.182 14.9421 13.7484 15.3801C13.3147 15.8181 12.6168 15.8181 11.221 15.8181H6.7794C5.38355 15.8181 4.68563 15.8181 4.25199 15.3801C3.81836 14.9421 3.81836 14.2371 3.81836 12.8272V9.6566Z" stroke="#4A4A4A" stroke-width="1.5"/>
<path d="M10.91 15.8182V12.2046C10.91 11.7904 10.5742 11.4546 10.16 11.4546H7.8418C7.42758 11.4546 7.0918 11.7904 7.0918 12.2046V15.8182" stroke="#4A4A4A" stroke-width="1.5" stroke-linecap="round" stroke-linejoin="round"/>
</svg>
