<svg width="15" height="15" viewBox="0 0 15 15" fill="none" xmlns="http://www.w3.org/2000/svg">
<path d="M10.5758 13.2913H4.78365C4.14387 13.2913 3.62522 12.7726 3.62522 12.1329V4.60309H2.4668V3.44467H4.78365V2.86546C4.78365 2.22568 5.30229 1.70703 5.94207 1.70703H9.41735C10.0571 1.70703 10.5758 2.22568 10.5758 2.86546V3.44467H12.8926V4.60309H11.7342V12.1329C11.7342 12.7726 11.2156 13.2913 10.5758 13.2913ZM4.78365 4.60309V12.1329H10.5758V4.60309H4.78365ZM5.94207 2.86546V3.44467H9.41735V2.86546H5.94207ZM9.41735 10.9744H8.25892V5.76152H9.41735V10.9744ZM7.1005 10.9744H5.94207V5.76152H7.1005V10.9744Z" fill="#2C2C2C"/>
</svg>
