<svg width="21" height="21" viewBox="0 0 21 21" fill="none" xmlns="http://www.w3.org/2000/svg">
<mask id="mask0" style="mask-type:alpha" maskUnits="userSpaceOnUse" x="2" y="2" width="17" height="17">
<path d="M2.8916 9.48547C2.8916 6.23346 2.8916 4.60745 3.90187 3.59718C4.91214 2.58691 6.53814 2.58691 9.79015 2.58691H11.5148C14.7668 2.58691 16.3928 2.58691 17.4031 3.59718C18.4133 4.60745 18.4133 6.23346 18.4133 9.48546V11.2101C18.4133 14.4621 18.4133 16.0881 17.4031 17.0984C16.3928 18.1087 14.7668 18.1087 11.5148 18.1087H9.79016C6.53815 18.1087 4.91214 18.1087 3.90187 17.0984C2.8916 16.0881 2.8916 14.4621 2.8916 11.2101V9.48547Z" fill="#273B4A"/>
</mask>
<g mask="url(#mask0)">
<path d="M4.96969 10.8566L4.83797 10.9883C3.99232 11.8339 3.56949 12.2568 3.31642 12.7759C3.22847 12.9562 3.15644 13.144 3.10113 13.3369C2.94199 13.892 2.97342 14.4892 3.03627 15.6834L3.32276 21.1267H18.4133V17.037C18.4133 15.7854 18.4133 15.1596 18.2076 14.5909C18.1514 14.4354 18.084 14.2842 18.0061 14.1384C17.721 13.605 17.2559 13.1864 16.3256 12.3491L16.3256 12.3491L16.1405 12.1826C15.3678 11.4872 14.9815 11.1394 14.5396 11.0409C14.2625 10.9791 13.9744 10.9867 13.7009 11.063C13.2649 11.1846 12.8973 11.5521 12.1622 12.2872C11.6169 12.8325 11.3443 13.1052 11.0513 13.1421C10.8697 13.1651 10.6855 13.1296 10.5254 13.0408C10.2671 12.8977 10.1129 12.5379 9.80444 11.8182C9.14849 10.2877 8.82051 9.5224 8.25667 9.23974C7.9728 9.09743 7.65516 9.03626 7.33875 9.06296C6.71026 9.116 6.13007 9.69619 4.96969 10.8566Z" fill="#7E869E" fill-opacity="0.25" stroke="#727272" stroke-width="0.862319"/>
</g>
<path d="M2.8916 9.48547C2.8916 6.23346 2.8916 4.60745 3.90187 3.59718C4.91214 2.58691 6.53814 2.58691 9.79015 2.58691H11.5148C14.7668 2.58691 16.3928 2.58691 17.4031 3.59718C18.4133 4.60745 18.4133 6.23346 18.4133 9.48546V11.2101C18.4133 14.4621 18.4133 16.0881 17.4031 17.0984C16.3928 18.1087 14.7668 18.1087 11.5148 18.1087H9.79016C6.53815 18.1087 4.91214 18.1087 3.90187 17.0984C2.8916 16.0881 2.8916 14.4621 2.8916 11.2101V9.48547Z" stroke="#727272" stroke-width="1.03478"/>
<circle cx="14.5327" cy="6.46731" r="1.29348" fill="#727272"/>
</svg>
