<svg width="21" height="21" viewBox="0 0 21 21" fill="none" xmlns="http://www.w3.org/2000/svg">
<path d="M10.5 3.5C6.63401 3.5 3.5 6.63401 3.5 10.5C3.5 14.366 6.63401 17.5 10.5 17.5C14.366 17.5 17.5 14.366 17.5 10.5C17.5 6.63401 14.366 3.5 10.5 3.5ZM1.75 10.5C1.75 5.66751 5.66751 1.75 10.5 1.75C15.3325 1.75 19.25 5.66751 19.25 10.5C19.25 15.3325 15.3325 19.25 10.5 19.25C5.66751 19.25 1.75 15.3325 1.75 10.5Z" fill="#3C3C3C"/>
<path d="M10.5 8.75C10.9832 8.75 11.375 9.14175 11.375 9.625V14.875C11.375 15.3582 10.9832 15.75 10.5 15.75C10.0168 15.75 9.625 15.3582 9.625 14.875V9.625C9.625 9.14175 10.0168 8.75 10.5 8.75Z" fill="#3C3C3C"/>
<path d="M11.8125 6.5625C11.8125 7.28737 11.2249 7.875 10.5 7.875C9.77513 7.875 9.1875 7.28737 9.1875 6.5625C9.1875 5.83763 9.77513 5.25 10.5 5.25C11.2249 5.25 11.8125 5.83763 11.8125 6.5625Z" fill="#3C3C3C"/>
</svg>
