<svg width="84" height="32" viewBox="0 0 84 32" fill="none" xmlns="http://www.w3.org/2000/svg">
<path d="M2.30916 30.6282C2.17582 30.487 2.10522 30.2987 2.10522 30.0556V28.126C2.10522 27.9063 2.17582 27.7259 2.30916 27.5691C2.44251 27.42 2.62292 27.3416 2.85039 27.3416H3.65046C4.51328 27.3416 5.09373 27.1063 5.39179 26.6356C5.68986 26.165 5.83889 25.4748 5.83889 24.5649V8.43795C5.83889 8.19479 5.90949 8.00654 6.05852 7.86535C6.19971 7.72416 6.38012 7.65356 6.58405 7.65356H9.29802C9.52549 7.65356 9.7059 7.72416 9.83925 7.86535C9.97259 8.00654 10.0432 8.19479 10.0432 8.43795V24.6668C10.0432 26.6278 9.54118 28.1417 8.52933 29.2241C7.51747 30.2987 6.02714 30.8399 4.0505 30.8399H2.85039C2.62292 30.8399 2.44251 30.7693 2.30916 30.6282Z" fill="white"/>
<path d="M14.2161 21.9371C13.1493 20.7292 12.616 19.0663 12.616 16.9484V8.45357C12.616 8.23394 12.6866 8.05353 12.8278 7.92803C12.9689 7.79468 13.1415 7.73193 13.3454 7.73193H16.0673C16.2712 7.73193 16.4438 7.80253 16.5849 7.94372C16.7261 8.08491 16.7967 8.25747 16.7967 8.46141V16.7759C16.7967 19.2545 17.8713 20.4939 20.0362 20.4939C21.0873 20.4939 21.9188 20.1644 22.5306 19.4977C23.1424 18.831 23.4561 17.9289 23.4561 16.7759V8.46141C23.4561 8.24178 23.5267 8.06137 23.6679 7.93587C23.8091 7.80253 23.9817 7.73978 24.1856 7.73978H26.8604C27.08 7.73978 27.2604 7.80253 27.3859 7.93587C27.5193 8.06922 27.582 8.24178 27.582 8.46141V22.7372C27.582 22.9411 27.5193 23.1137 27.3859 23.2549C27.2526 23.3961 27.08 23.4667 26.8604 23.4667H24.3503C24.1464 23.4667 23.9738 23.3961 23.8327 23.2549C23.6915 23.1137 23.6209 22.9411 23.6209 22.7372V21.4979C22.5149 23.0117 20.8363 23.7647 18.6008 23.7647C16.7497 23.7569 15.2829 23.1529 14.2161 21.9371Z" fill="white"/>
<path d="M30.5782 23.2392C30.437 23.098 30.3665 22.9255 30.3665 22.7215V8.44576C30.3665 8.22613 30.437 8.04572 30.5782 7.92022C30.7194 7.78687 30.892 7.72412 31.0959 7.72412H33.4883C33.7079 7.72412 33.8883 7.78687 34.0138 7.92022C34.1472 8.05356 34.2099 8.22613 34.2099 8.44576V9.4733C35.3002 8.10063 36.7592 7.41821 38.5946 7.41821C40.8301 7.41821 42.3911 8.31241 43.2853 10.1086C43.7716 9.30073 44.454 8.6497 45.3403 8.15553C46.2267 7.66137 47.1836 7.41821 48.2112 7.41821C49.8662 7.41821 51.2154 7.98297 52.2664 9.11248C53.3175 10.242 53.8352 11.8814 53.8352 14.0384V22.7137C53.8352 22.9176 53.7725 23.0902 53.6391 23.2314C53.5058 23.3726 53.3332 23.4432 53.1136 23.4432H50.6035C50.3996 23.4432 50.227 23.3726 50.0859 23.2314C49.9447 23.0902 49.8741 22.9176 49.8741 22.7137V14.2894C49.8741 13.0187 49.6074 12.101 49.074 11.5362C48.5406 10.9715 47.8425 10.6891 46.9719 10.6891C46.1875 10.6891 45.5129 10.9793 44.9638 11.5519C44.4069 12.1245 44.1324 13.0422 44.1324 14.2894V22.7294C44.1324 22.9333 44.0696 23.1059 43.9363 23.2471C43.8029 23.3883 43.6304 23.4589 43.4108 23.4589H40.8693C40.6654 23.4589 40.4928 23.3883 40.3517 23.2471C40.2105 23.1059 40.1399 22.9333 40.1399 22.7294V14.2894C40.1399 13.0422 39.8653 12.1245 39.3241 11.5519C38.7829 10.9793 38.0848 10.6891 37.2377 10.6891C36.4533 10.6891 35.7787 10.9793 35.2296 11.5519C34.6727 12.1245 34.3982 13.0422 34.3982 14.2894V22.7294C34.3982 22.9333 34.3354 23.1059 34.2021 23.2471C34.0687 23.3883 33.8962 23.4589 33.6766 23.4589H31.1038C30.892 23.451 30.7194 23.3804 30.5782 23.2392Z" fill="white"/>
<path d="M56.6747 23.2395C56.5335 23.0983 56.4629 22.9257 56.4629 22.7218V8.446C56.4629 8.22637 56.5335 8.04596 56.6747 7.92046C56.8159 7.78712 56.9884 7.72437 57.1924 7.72437H59.7651C59.9691 7.72437 60.1416 7.79496 60.2828 7.93615C60.424 8.07734 60.4946 8.2499 60.4946 8.45384V22.7296C60.4946 22.9336 60.424 23.1061 60.2828 23.2473C60.1416 23.3885 59.9691 23.4591 59.7651 23.4591H57.1924C56.9806 23.4513 56.8159 23.3807 56.6747 23.2395Z" fill="#92C039"/>
<path d="M64.746 21.9372C63.4518 20.7292 62.7615 19.0585 62.6596 16.9171L62.6282 15.5836L62.6596 14.2502C62.7615 12.1324 63.4675 10.4616 64.7774 9.24583C66.0873 8.02219 67.9149 7.41821 70.2524 7.41821C72.5742 7.41821 74.3861 8.03003 75.696 9.24583C77.0059 10.4695 77.7119 12.1324 77.8138 14.2502C77.8295 14.4934 77.8452 14.9326 77.8452 15.5836C77.8452 16.2268 77.8374 16.6739 77.8138 16.9171C77.7119 19.0506 77.0138 20.7292 75.7274 21.9372C74.4331 23.1451 72.6134 23.7491 70.2524 23.7491C67.8679 23.7569 66.0324 23.1529 64.746 21.9372ZM72.7153 19.7017C73.2879 19.0349 73.5939 18.0623 73.6409 16.7681C73.6645 16.5641 73.6723 16.1719 73.6723 15.5915C73.6723 15.0032 73.6645 14.611 73.6409 14.4149C73.6017 13.1285 73.2879 12.1402 72.6997 11.4656C72.1114 10.7911 71.2956 10.4538 70.2524 10.4538C69.1856 10.4538 68.3542 10.7911 67.7737 11.4656C67.1854 12.1402 66.8795 13.1207 66.8325 14.4149L66.8011 15.5915L66.8325 16.7681C66.8717 18.0623 67.1854 19.0349 67.7737 19.7017C68.362 20.3684 69.1856 20.6978 70.2524 20.6978C71.3191 20.6978 72.1349 20.3684 72.7153 19.7017Z" fill="white"/>
<path d="M56.5492 4.94723C56.408 4.80604 56.3374 4.63348 56.3374 4.42954V2.22542C56.3374 2.00579 56.408 1.82538 56.5492 1.6842C56.6904 1.54301 56.8629 1.47241 57.0669 1.47241H59.8514C60.0711 1.47241 60.2515 1.54301 60.3927 1.6842C60.5339 1.82538 60.6045 2.00579 60.6045 2.22542V4.42954C60.6045 4.63348 60.526 4.80604 60.377 4.94723C60.2279 5.08842 60.0475 5.15901 59.8514 5.15901H57.0669C56.8629 5.15901 56.6904 5.08842 56.5492 4.94723Z" fill="#92C039"/>
<path d="M5.98791 4.94723C5.84672 4.80604 5.77612 4.63348 5.77612 4.42954V2.22542C5.77612 2.00579 5.84672 1.82538 5.98791 1.6842C6.1291 1.54301 6.30166 1.47241 6.5056 1.47241H9.29016C9.50979 1.47241 9.6902 1.54301 9.83139 1.6842C9.97258 1.82538 10.0432 2.00579 10.0432 2.22542V4.42954C10.0432 4.63348 9.96473 4.80604 9.8157 4.94723C9.66667 5.08842 9.48626 5.15901 9.29016 5.15901H6.5056C6.30166 5.15901 6.1291 5.08842 5.98791 4.94723Z" fill="white"/>
<path d="M79.5554 20.6821C80.3554 20.6821 80.9751 21.3018 80.9751 22.0862C80.9751 22.8941 80.3554 23.5138 79.5475 23.5138C78.7396 23.5138 78.1042 22.8941 78.1042 22.0862C78.1042 21.3018 78.7396 20.6821 79.5475 20.6821H79.5554ZM79.5397 20.9253C78.9043 20.9253 78.418 21.4508 78.418 22.0862C78.418 22.7372 78.9043 23.2549 79.5632 23.2549C80.1907 23.2627 80.6692 22.7451 80.6692 22.094C80.6692 21.443 80.1907 20.9253 79.5554 20.9253H79.5397ZM79.2887 22.8627H79.0141V21.3881C79.1632 21.3645 79.32 21.341 79.524 21.341C79.775 21.341 79.8926 21.3881 79.9868 21.4587C80.0731 21.5214 80.1358 21.6391 80.1358 21.7803C80.1358 21.9607 80.0025 22.0705 79.8534 22.1254V22.1411C79.9789 22.196 80.0495 22.3058 80.0887 22.5019C80.1358 22.7215 80.1672 22.8078 80.2064 22.8627H79.924C79.877 22.8078 79.8456 22.6745 79.7985 22.4784C79.7593 22.3136 79.6652 22.2431 79.4612 22.2431H79.2808V22.8627H79.2887ZM79.2887 22.0313H79.4769C79.673 22.0313 79.8613 21.9685 79.8613 21.8038C79.8613 21.6626 79.7671 21.5528 79.5083 21.5528C79.3985 21.5528 79.3436 21.5606 79.2965 21.5685V22.0313H79.2887Z" fill="white"/>
</svg>
