<svg width="15" height="15" viewBox="0 0 15 15" fill="none" xmlns="http://www.w3.org/2000/svg">
<path d="M8.83892 12.8632H3.0468C2.73638 12.874 2.43542 12.7555 2.21579 12.5358C1.99617 12.3162 1.87758 12.0152 1.88837 11.7048V5.9127C1.87758 5.60228 1.99617 5.30132 2.21579 5.08169C2.43542 4.86207 2.73638 4.74348 3.0468 4.75427H5.36365V2.43742C5.35286 2.12701 5.47144 1.82605 5.69107 1.60642C5.9107 1.38679 6.21166 1.26821 6.52207 1.279H12.3142C12.6246 1.26821 12.9256 1.38679 13.1452 1.60642C13.3648 1.82605 13.4834 2.12701 13.4726 2.43742V8.22955C13.4832 8.53991 13.3646 8.84077 13.145 9.06036C12.9254 9.27995 12.6246 9.39859 12.3142 9.38797H9.99735V11.7048C10.008 12.0152 9.88932 12.316 9.66973 12.5356C9.45014 12.7552 9.14929 12.8739 8.83892 12.8632ZM3.0468 5.9127V11.7048H8.83892V9.38797H6.52207C6.21171 9.39859 5.91085 9.27995 5.69126 9.06036C5.47167 8.84077 5.35303 8.53991 5.36365 8.22955V5.9127H3.0468ZM6.52207 2.43742V8.22955H12.3142V2.43742H6.52207Z" fill="#2C2C2C"/>
</svg>
