<svg width="13" height="17" viewBox="0 0 13 17" fill="none" xmlns="http://www.w3.org/2000/svg">
<path d="M6.5013 2.16683C7.80574 2.16683 8.8763 3.23739 8.8763 4.54183V6.91683H4.1263V4.54183C4.1263 3.23739 5.19686 2.16683 6.5013 2.16683ZM10.4596 6.91683V4.54183C10.4596 2.36294 8.68019 0.583496 6.5013 0.583496C4.32241 0.583496 2.54297 2.36294 2.54297 4.54183V6.91683H1.7513C0.876851 6.91683 0.167969 7.62571 0.167969 8.50016V14.8335C0.167969 15.7079 0.876852 16.4168 1.7513 16.4168H11.2513C12.1258 16.4168 12.8346 15.7079 12.8346 14.8335V8.50016C12.8346 7.62571 12.1258 6.91683 11.2513 6.91683H10.4596ZM1.7513 8.50016H11.2513V14.8335H1.7513V8.50016Z" fill="#0D0D0D"/>
</svg>
