<svg width="18" height="18" viewBox="0 0 18 18" fill="none" xmlns="http://www.w3.org/2000/svg">
<path d="M10.875 15.75V12C10.875 11.5858 10.5392 11.25 10.125 11.25H7.875C7.46079 11.25 7.125 11.5858 7.125 12V15.75" stroke="#4A4A4A" stroke-width="1.5" stroke-linecap="round" stroke-linejoin="round"/>
<path d="M3.75 8.25V12.75C3.75 14.1642 3.75 14.8713 4.18934 15.3107C4.62868 15.75 5.33579 15.75 6.75 15.75H11.25C12.6642 15.75 13.3713 15.75 13.8107 15.3107C14.25 14.8713 14.25 14.1642 14.25 12.75V8.25" stroke="#4A4A4A" stroke-width="1.5"/>
<path d="M3.37127 3.76493C3.55316 3.03737 3.6441 2.67359 3.91536 2.46179C4.18663 2.25 4.5616 2.25 5.31155 2.25H12.6884C13.4384 2.25 13.8134 2.25 14.0846 2.46179C14.3559 2.67359 14.4468 3.03737 14.6287 3.76493L15.3848 6.78904C15.4341 6.98638 15.4588 7.08505 15.4656 7.16473C15.5102 7.68634 15.145 8.15409 14.6281 8.23729C14.5492 8.25 14.4475 8.25 14.2441 8.25V8.25C14.0333 8.25 13.9279 8.25 13.8358 8.23857C13.2443 8.16511 12.7525 7.74843 12.5828 7.17706C12.5564 7.08812 12.539 6.98417 12.5044 6.77626L12.4953 6.72166C12.4791 6.62489 12.4711 6.57651 12.464 6.56268C12.4268 6.49014 12.3232 6.49014 12.286 6.56268C12.2789 6.57651 12.2709 6.62489 12.2547 6.72166L12.2158 6.95536C12.2093 6.99426 12.206 7.01371 12.2028 7.03075C12.0705 7.72538 11.4709 8.23325 10.764 8.2496C10.7467 8.25 10.7269 8.25 10.6875 8.25V8.25C10.6481 8.25 10.6283 8.25 10.611 8.2496C9.90406 8.23325 9.30455 7.72538 9.1722 7.03075C9.16895 7.01371 9.16571 6.99426 9.15923 6.95536L9.12028 6.72166C9.10415 6.62489 9.09609 6.57651 9.089 6.56268C9.05184 6.49014 8.94817 6.49014 8.911 6.56268C8.90392 6.57651 8.89585 6.62489 8.87972 6.72166L8.84077 6.95536C8.83429 6.99426 8.83105 7.01371 8.8278 7.03075C8.69545 7.72538 8.09594 8.23325 7.38899 8.2496C7.37165 8.25 7.35194 8.25 7.3125 8.25V8.25C7.27306 8.25 7.25335 8.25 7.23601 8.2496C6.52906 8.23325 5.92955 7.72538 5.7972 7.03075C5.79395 7.01371 5.79071 6.99426 5.78423 6.95536L5.74528 6.72166C5.72915 6.62489 5.72108 6.57651 5.714 6.56268C5.67684 6.49014 5.57317 6.49014 5.536 6.56268C5.52892 6.57651 5.52085 6.62489 5.50472 6.72166L5.49562 6.77626C5.46097 6.98417 5.44365 7.08812 5.41723 7.17706C5.24754 7.74843 4.75566 8.16511 4.16417 8.23857C4.07209 8.25 3.9667 8.25 3.75593 8.25V8.25C3.55251 8.25 3.45081 8.25 3.37185 8.23729C2.85499 8.15409 2.48978 7.68634 2.53442 7.16473C2.54124 7.08505 2.56591 6.98638 2.61524 6.78903L3.37127 3.76493Z" stroke="#4A4A4A" stroke-width="1.5"/>
</svg>
