<svg width="87" height="30" viewBox="0 0 87 30" fill="none" xmlns="http://www.w3.org/2000/svg">
<rect x="0.5" y="0.5" width="86" height="28.5981" rx="14.2991" fill="white" stroke="#727272"/>
<path d="M37.7608 18.797H35.3915C35.1894 18.797 35.0883 18.797 35.0032 18.8055C34.1857 18.8868 33.539 19.5335 33.4577 20.351C33.4492 20.4361 33.4492 20.5372 33.4492 20.7394V20.7394C33.4492 20.9806 33.4492 21.1013 33.4599 21.197C33.5641 22.1263 34.3899 22.8034 35.3216 22.7232C35.4176 22.715 35.5359 22.6913 35.7725 22.644L36.0278 22.5929C36.3559 22.5273 36.5199 22.4945 36.6583 22.441C37.2232 22.2225 37.632 21.7238 37.7355 21.1271C37.7608 20.9809 37.7608 20.8136 37.7608 20.479V13.0016C37.7608 11.648 37.7608 10.9711 38.1517 10.4943C38.5426 10.0175 39.2063 9.88476 40.5336 9.61929L42.2583 9.27437C44.1671 8.8926 45.1215 8.70171 45.7528 9.2192C46.384 9.73669 46.384 10.71 46.384 12.6567V12.7608M46.384 17.0724V18.7544C46.384 19.0889 46.384 19.2562 46.3586 19.4024C46.2552 19.9991 45.8463 20.4979 45.2815 20.7163C45.1431 20.7699 44.9791 20.8027 44.651 20.8683L44.3957 20.9194C44.1591 20.9667 44.0408 20.9903 43.9448 20.9986C43.0131 21.0787 42.1873 20.4017 42.0831 19.4723C42.0724 19.3766 42.0724 19.256 42.0724 19.0147V19.0147C42.0724 18.8126 42.0724 18.7115 42.0809 18.6263C42.1622 17.8089 42.8089 17.1622 43.6263 17.0809C43.7115 17.0724 43.8126 17.0724 44.0147 17.0724H46.384ZM46.384 17.0724V12.7608M46.384 12.7608L37.7608 14.4855" stroke="#727272" stroke-width="1.72464"/>
<path d="M22.9789 16.119L23.3646 16.8903L22.9789 16.119ZM17.3958 11.7849L17.7815 11.0136L17.3958 11.7849ZM17.7815 11.0136L23.3646 13.8052L22.5933 15.3477L17.0102 12.5562L17.7815 11.0136ZM23.3646 16.8903L17.7815 19.6818L17.0102 18.1393L22.5933 15.3477L23.3646 16.8903ZM16.7606 12.7104V17.985H15.036V12.7104H16.7606ZM17.7815 19.6818C16.5201 20.3125 15.036 19.3953 15.036 17.985H16.7606C16.7606 18.1132 16.8955 18.1966 17.0102 18.1393L17.7815 19.6818ZM23.3646 13.8052C24.6357 14.4407 24.6357 16.2547 23.3646 16.8903L22.5933 15.3477L22.5933 15.3477L23.3646 13.8052ZM17.0102 12.5562C16.8955 12.4989 16.7606 12.5822 16.7606 12.7104H15.036C15.036 11.3002 16.5201 10.3829 17.7815 11.0136L17.0102 12.5562Z" fill="#727272"/>
<circle cx="19.3478" cy="15.3478" r="7.76087" stroke="#727272" stroke-width="1.72464"/>
<rect x="54.8623" y="7.86232" width="19.8333" height="14.6594" rx="3.17564" fill="white" stroke="#727272" stroke-width="1.72464"/>
<path d="M62.4183 13.5855C62.309 13.3843 62.1509 13.2319 61.944 13.1284C61.7428 13.0192 61.5042 12.9646 61.2283 12.9646C60.7511 12.9646 60.3688 13.1227 60.0814 13.4389C59.7939 13.7493 59.6502 14.1661 59.6502 14.6892C59.6502 15.2469 59.7997 15.6838 60.0986 16C60.4033 16.3104 60.8201 16.4656 61.349 16.4656C61.7112 16.4656 62.0158 16.3736 62.263 16.1897C62.516 16.0057 62.7 15.7413 62.8149 15.3963H60.9437V14.3098H64.1515V15.6809C64.0423 16.0488 63.8555 16.3909 63.591 16.7071C63.3323 17.0233 63.0018 17.2791 62.5994 17.4745C62.1969 17.67 61.7428 17.7677 61.2369 17.7677C60.639 17.7677 60.1044 17.6384 59.633 17.3797C59.1673 17.1152 58.8023 16.7502 58.5378 16.2845C58.2791 15.8189 58.1498 15.2871 58.1498 14.6892C58.1498 14.0914 58.2791 13.5596 58.5378 13.094C58.8023 12.6226 59.1673 12.2575 59.633 11.9988C60.0986 11.7344 60.6304 11.6021 61.2283 11.6021C61.9526 11.6021 62.562 11.7775 63.0564 12.1282C63.5565 12.4788 63.8871 12.9646 64.048 13.5855H62.4183ZM66.4429 11.6711V17.7246H64.9683V11.6711H66.4429ZM71.4523 11.6711V12.8525H68.986V14.1287H70.8314V15.2756H68.986V17.7246H67.5115V11.6711H71.4523Z" fill="#727272"/>
</svg>
