<?xml version="1.0" encoding="utf-8"?>
<!-- Generator: Adobe Illustrator 25.4.1, SVG Export Plug-In . SVG Version: 6.00 Build 0)  -->
<svg version="1.1" id="Layer_1" xmlns="http://www.w3.org/2000/svg" xmlns:xlink="http://www.w3.org/1999/xlink" x="0px" y="0px"
	 viewBox="0 0 100 125" style="enable-background:new 0 0 100 125;" xml:space="preserve">
<path d="M87.6,8.5L10.3,37.9c-1.5,0.6-2.3,2.3-1.7,3.9c0.3,0.9,1.1,1.5,2,1.8l35.4,10.5l10.5,35.4c0.4,1.2,1.5,2.1,2.8,2.2h0.1
	c1.2,0,2.4-0.8,2.8-1.9l29.4-77.3c0.6-1.5-0.2-3.3-1.7-3.9C89,8.3,88.3,8.3,87.6,8.5z M20.7,40.4l55.9-21.2L47.5,48.3L20.7,40.4z
	 M59.6,79.3l-7.9-26.8l29.1-29.1L59.6,79.3z" fill="#4A4A4A"/>
</svg>
