<svg width="85" height="79" viewBox="0 0 85 79" fill="none" xmlns="http://www.w3.org/2000/svg">
<path d="M70.5856 0.82245L10.3421 10.6417C7.96744 11.0333 5.77135 12.1476 4.0532 13.8329C2.33506 15.5181 1.17847 17.6923 0.741144 20.0589C0.303814 22.4255 0.607017 24.8694 1.60942 27.0574C2.61182 29.2454 4.26463 31.071 6.34251 32.2853L26.1873 43.7872C26.6559 44.0734 27.0626 44.4501 27.384 44.8953C27.7053 45.3405 27.9347 45.8452 28.0589 46.38L32.7264 68.8372C33.126 70.7453 33.996 72.5233 35.2575 74.0096C36.519 75.4959 38.1319 76.6434 39.9497 77.3479C41.7674 78.0523 43.7324 78.2913 45.666 78.0431C47.5997 77.795 49.4406 77.0675 51.0216 75.9269C52.4915 74.8435 53.7004 73.445 54.5599 71.834L82.8505 17.7476C83.8506 15.8243 84.2966 13.661 84.1388 11.4989C83.9809 9.33693 83.2255 7.26129 81.9568 5.5036C80.6881 3.7459 78.9559 2.37529 76.9536 1.54468C74.9513 0.714065 72.7575 0.456119 70.6172 0.799626L70.5856 0.82245ZM75.9194 14.1418L47.6287 68.2282C47.2489 68.9269 46.6646 69.4928 45.954 69.8499C45.2435 70.2071 44.4407 70.3385 43.6534 70.2265C42.8661 70.1145 42.1318 69.7644 41.5491 69.2233C40.9663 68.6821 40.563 67.9758 40.3931 67.1989L35.6939 44.7645C35.6281 44.4671 35.5449 44.1739 35.4447 43.8863L57.2305 28.1609C58.0691 27.5556 58.6329 26.6419 58.7978 25.6209C58.9628 24.5999 58.7154 23.5552 58.1101 22.7166C57.5047 21.878 56.5911 21.3142 55.5701 21.1493C54.5491 20.9843 53.5044 21.2317 52.6658 21.837L30.8801 37.5624C30.6386 37.3768 30.3865 37.2055 30.125 37.0494L10.3118 25.5246C9.62791 25.1187 9.08449 24.5134 8.75439 23.7899C8.42428 23.0664 8.32327 22.2592 8.46489 21.4767C8.60652 20.6942 8.98401 19.9736 9.54675 19.4117C10.1095 18.8498 10.8306 18.4734 11.6133 18.3329L71.8568 8.5136C72.5663 8.40509 73.2919 8.49448 73.9538 8.77192C74.6158 9.04936 75.1883 9.50409 75.6083 10.086C76.0284 10.668 76.2797 11.3546 76.3346 12.0702C76.3895 12.7858 76.2458 13.5026 75.9194 14.1418V14.1418Z" fill="black"/>
</svg>
