<svg width="24" height="23" viewBox="0 0 24 23" fill="none" xmlns="http://www.w3.org/2000/svg">
<path fill-rule="evenodd" clip-rule="evenodd" d="M9.42352 11.9866L7.29147 11.2759C5.06118 10.5325 3.94604 10.1607 3.94604 9.47764C3.94604 8.79453 5.06119 8.42282 7.29147 7.67939L15.3599 4.98991C16.9292 4.46681 17.7138 4.20527 18.128 4.61945C18.5422 5.03364 18.2807 5.81828 17.7576 7.38755L17.7576 7.38757L17.7576 7.38757L15.0681 15.456C14.3247 17.6863 13.9529 18.8014 13.2698 18.8014C12.5867 18.8014 12.215 17.6863 11.4716 15.456L10.7624 13.3284L14.8904 9.20033C15.2606 8.8302 15.2606 8.23012 14.8904 7.85999C14.5203 7.48987 13.9202 7.48987 13.5501 7.85999L9.42352 11.9866Z" fill="#4A4A4A"/>
</svg>
