<svg width="10" height="10" viewBox="0 0 10 10" fill="none" xmlns="http://www.w3.org/2000/svg">
<path d="M7.20681 0.348949C7.40385 0.151913 7.7233 0.151913 7.92034 0.348949L9.43396 1.86257C9.631 2.05961 9.631 2.37907 9.43396 2.5761L4.89309 7.11697C4.79847 7.21159 4.67014 7.26475 4.53633 7.26475H3.02271C2.74405 7.26475 2.51816 7.03886 2.51816 6.76021V5.24658C2.51816 5.11277 2.57132 4.98444 2.66594 4.88982L7.20681 0.348949ZM3.52725 5.45557V6.25566H4.32734L8.36367 2.21934L7.56357 1.41924L3.52725 5.45557ZM0.5 2.21934C0.5 1.66204 0.951781 1.21025 1.50908 1.21025H4.03179C4.31044 1.21025 4.53633 1.43614 4.53633 1.71479C4.53633 1.99345 4.31044 2.21934 4.03179 2.21934H1.50908V8.27383H7.56357V5.75112C7.56357 5.47247 7.78946 5.24658 8.06812 5.24658C8.34677 5.24658 8.57266 5.47247 8.57266 5.75112V8.27383C8.57266 8.83113 8.12088 9.28291 7.56357 9.28291H1.50908C0.951781 9.28291 0.5 8.83113 0.5 8.27383V2.21934Z" fill="white"/>
</svg>
