<svg width="21" height="27" viewBox="0 0 21 27" fill="none" xmlns="http://www.w3.org/2000/svg">
<path d="M18.3294 15.0829V10.9612C18.3276 9.12475 17.6759 7.3482 16.4897 5.94619C15.3036 4.54417 13.6595 3.60715 11.8488 3.30108V1.88829C11.8488 1.54454 11.7122 1.21486 11.4691 0.971791C11.2261 0.728719 10.8964 0.592163 10.5526 0.592163C10.2089 0.592163 9.87921 0.728719 9.63614 0.971791C9.39307 1.21486 9.25651 1.54454 9.25651 1.88829V3.30108C7.44574 3.60715 5.80171 4.54417 4.61557 5.94619C3.42943 7.3482 2.77772 9.12475 2.77586 10.9612V15.0829C2.0195 15.3503 1.36437 15.8451 0.900274 16.4995C0.436182 17.1539 0.185848 17.9358 0.183594 18.738V21.3303C0.183594 21.674 0.32015 22.0037 0.563222 22.2468C0.806294 22.4898 1.13597 22.6264 1.47972 22.6264H5.54958C5.84805 23.7247 6.49964 24.6943 7.40382 25.3855C8.30799 26.0768 9.4145 26.4513 10.5526 26.4513C11.6908 26.4513 12.7973 26.0768 13.7015 25.3855C14.6056 24.6943 15.2572 23.7247 15.5557 22.6264H19.6256C19.9693 22.6264 20.299 22.4898 20.5421 22.2468C20.7851 22.0037 20.9217 21.674 20.9217 21.3303V18.738C20.9194 17.9358 20.6691 17.1539 20.205 16.4995C19.7409 15.8451 19.0858 15.3503 18.3294 15.0829ZM5.36812 10.9612C5.36812 9.58619 5.91434 8.26749 6.88663 7.2952C7.85892 6.32291 9.17762 5.77669 10.5526 5.77669C11.9277 5.77669 13.2464 6.32291 14.2187 7.2952C15.1909 8.26749 15.7372 9.58619 15.7372 10.9612V14.8496H5.36812V10.9612ZM10.5526 23.9225C10.1003 23.9198 9.65646 23.7987 9.26536 23.5713C8.87427 23.344 8.54949 23.0182 8.3233 22.6264H12.782C12.5558 23.0182 12.231 23.344 11.8399 23.5713C11.4488 23.7987 11.005 23.9198 10.5526 23.9225ZM18.3294 20.0341H2.77586V18.738C2.77586 18.3942 2.91241 18.0646 3.15548 17.8215C3.39856 17.5784 3.72823 17.4419 4.07199 17.4419H17.0333C17.3771 17.4419 17.7067 17.5784 17.9498 17.8215C18.1929 18.0646 18.3294 18.3942 18.3294 18.738V20.0341Z" fill="#4A4A4A"/>
</svg>
