<svg width="15" height="15" viewBox="0 0 15 15" fill="none" xmlns="http://www.w3.org/2000/svg">
<path d="M9.12848 13.1227V10.2267C9.12848 9.90678 8.86916 9.64746 8.54927 9.64746H6.81163C6.49174 9.64746 6.23242 9.90678 6.23242 10.2267V13.1227" stroke="#2C2C2C" stroke-width="1.15842" stroke-linecap="round" stroke-linejoin="round"/>
<path d="M3.62598 7.33008V10.8054C3.62598 11.8975 3.62598 12.4436 3.96527 12.7829C4.30457 13.1222 4.85065 13.1222 5.94283 13.1222H9.4181C10.5103 13.1222 11.0564 13.1222 11.3957 12.7829C11.735 12.4436 11.735 11.8975 11.735 10.8054V7.33008" stroke="#2C2C2C" stroke-width="1.15842"/>
<path d="M3.24649 4.21122C3.42838 3.48366 3.51932 3.11988 3.79059 2.90808C4.06185 2.69629 4.43682 2.69629 5.18677 2.69629H10.1726C10.9226 2.69629 11.2976 2.69629 11.5688 2.90808C11.8401 3.11988 11.931 3.48366 12.1129 4.21122L12.5745 6.05739C12.5813 6.08454 12.5847 6.09811 12.5871 6.10882C12.727 6.72569 12.2662 7.31585 11.6338 7.32975C11.6228 7.32999 11.6088 7.32999 11.5809 7.32999V7.32999C11.5585 7.32999 11.5473 7.32999 11.5374 7.32982C10.9861 7.32044 10.5177 6.92372 10.4178 6.38141C10.4161 6.37172 10.4142 6.36068 10.4105 6.33858L10.396 6.25166C10.3877 6.2014 10.3835 6.17627 10.3809 6.16866C10.3503 6.07795 10.222 6.07795 10.1914 6.16866C10.1888 6.17627 10.1847 6.2014 10.1763 6.25166L10.1632 6.33016C10.1582 6.3602 10.1557 6.37522 10.1532 6.38838C10.051 6.92484 9.58797 7.31705 9.04201 7.32968C9.02862 7.32999 9.01339 7.32999 8.98294 7.32999V7.32999C8.95248 7.32999 8.93725 7.32999 8.92386 7.32968C8.3779 7.31705 7.91491 6.92484 7.81269 6.38838C7.81019 6.37522 7.80768 6.3602 7.80268 6.33016L7.78959 6.25166C7.78122 6.2014 7.77703 6.17627 7.77446 6.16866C7.74386 6.07795 7.61556 6.07795 7.58496 6.16866C7.58239 6.17627 7.5782 6.2014 7.56982 6.25166L7.55674 6.33016C7.55173 6.3602 7.54923 6.37522 7.54672 6.38838C7.44451 6.92484 6.98152 7.31705 6.43556 7.32968C6.42216 7.32999 6.40694 7.32999 6.37648 7.32999V7.32999C6.34603 7.32999 6.3308 7.32999 6.31741 7.32968C5.77144 7.31705 5.30845 6.92484 5.20624 6.38838C5.20373 6.37522 5.20123 6.3602 5.19622 6.33016L5.18314 6.25166C5.17476 6.2014 5.17057 6.17627 5.16801 6.16866C5.1374 6.07795 5.0091 6.07795 4.9785 6.16866C4.97593 6.17627 4.97175 6.2014 4.96337 6.25166L4.94888 6.33858C4.9452 6.36068 4.94336 6.37172 4.94157 6.38141C4.84168 6.92372 4.37336 7.32044 3.82201 7.32982C3.81216 7.32999 3.80097 7.32999 3.77857 7.32999V7.32999C3.75058 7.32999 3.73659 7.32999 3.72561 7.32975C3.09322 7.31585 2.63244 6.72569 2.77234 6.10882C2.77477 6.09811 2.77816 6.08454 2.78495 6.05739L3.24649 4.21122Z" stroke="#2C2C2C" stroke-width="1.15842"/>
</svg>
