<svg width="15" height="15" viewBox="0 0 15 15" fill="none" xmlns="http://www.w3.org/2000/svg">
<path d="M3.91515 12.7949C3.59526 12.7949 3.33594 12.5356 3.33594 12.2157V3.52748C3.33594 3.20759 3.59526 2.94826 3.91515 2.94826H7.61053C7.83072 2.94674 8.03273 3.07019 8.13182 3.26684L8.54885 4.1067H11.4449C11.7648 4.1067 12.0241 4.36602 12.0241 4.68591V9.31961C12.0241 9.6395 11.7648 9.89882 11.4449 9.89882H8.32296C8.10485 9.89816 7.90561 9.77503 7.80746 9.58025L7.39042 8.7404H4.49436V12.2157C4.49436 12.5356 4.23504 12.7949 3.91515 12.7949ZM4.49436 4.1067V7.58197H7.96964L8.54885 8.7404H10.8657V5.26512H7.96964L7.39042 4.1067H4.49436Z" fill="#808080"/>
</svg>
