<svg width="28" height="30" viewBox="0 0 28 30" fill="none" xmlns="http://www.w3.org/2000/svg">
<path fill-rule="evenodd" clip-rule="evenodd" d="M11.9809 13.7674L10.9194 11.3875C10.1404 9.64081 9.7509 8.76746 10.122 8.3804C10.4932 7.99334 11.2834 8.44876 12.864 9.35959L19.9161 13.4236C21.0066 14.0521 21.5519 14.3664 21.5398 14.8408C21.5278 15.3152 20.9672 15.6 19.8462 16.1698L12.6695 19.8172C11.1075 20.6111 10.3265 21.008 9.97552 20.6127C9.62456 20.2174 10.0206 19.3869 10.8125 17.7258L11.9675 15.3033L16.7886 15.4551C17.1797 15.4674 17.5069 15.1337 17.5195 14.7099C17.5321 14.286 17.2252 13.9324 16.8341 13.9201L11.9809 13.7674Z" fill="#4A4A4A"/>
</svg>
