<svg width="18" height="18" viewBox="0 0 18 18" fill="none" xmlns="http://www.w3.org/2000/svg">
<path d="M2.31126 10.4584C1.91473 9.74555 1.71647 9.38913 1.71647 9C1.71647 8.61087 1.91473 8.25445 2.31126 7.54162L3.3232 5.7225L4.39264 3.93657C4.8117 3.23675 5.02123 2.88684 5.35823 2.69227C5.69523 2.49771 6.10303 2.4912 6.91862 2.4782L9 2.445L11.0814 2.4782C11.897 2.4912 12.3048 2.49771 12.6418 2.69227C12.9788 2.88684 13.1883 3.23675 13.6074 3.93657L14.6768 5.7225L15.6887 7.54162C16.0853 8.25445 16.2835 8.61087 16.2835 9C16.2835 9.38913 16.0853 9.74555 15.6887 10.4584L14.6768 12.2775L13.6074 14.0634C13.1883 14.7632 12.9788 15.1132 12.6418 15.3077C12.3048 15.5023 11.897 15.5088 11.0814 15.5218L9 15.555L6.91862 15.5218C6.10303 15.5088 5.69523 15.5023 5.35823 15.3077C5.02124 15.1132 4.8117 14.7632 4.39264 14.0634L3.3232 12.2775L2.31126 10.4584Z" stroke="#8F8F8F" stroke-width="1.5"/>
<circle cx="9" cy="9" r="2.25" stroke="#8F8F8F" stroke-width="1.5"/>
</svg>
