<svg width="15" height="15" viewBox="0 0 15 15" fill="none" xmlns="http://www.w3.org/2000/svg">
<path d="M3.0459 11.7714V7.71687H7.10039L5.23706 9.58193C5.87996 10.2393 6.76008 10.6108 7.6796 10.6129C9.15048 10.6108 10.4607 9.68284 10.951 8.29608H10.9614C11.0278 8.10761 11.0779 7.91384 11.1114 7.71687H12.2768C11.9849 10.0337 10.0147 11.7713 7.6796 11.7714H7.67381C6.44516 11.775 5.26611 11.287 4.39952 10.416L3.0459 11.7714ZM4.24719 6.55844H3.08181C3.37359 4.24252 5.34248 2.50519 7.6767 2.50393H7.6796C8.90847 2.5 10.0878 2.98808 10.9545 3.85931L12.3133 2.50393V6.55844H8.25881L10.125 4.69338C9.48147 4.03519 8.60014 3.66362 7.6796 3.66238C6.20872 3.66455 4.8985 4.59247 4.40821 5.97923H4.39778C4.33091 6.16754 4.28072 6.36135 4.24776 6.55844H4.24719Z" fill="#2C2C2C"/>
</svg>
