<svg width="22" height="19" viewBox="0 0 22 19" fill="none" xmlns="http://www.w3.org/2000/svg">
<path d="M9.52837 1.90323C7.18949 1.90323 5.29354 3.60744 5.29354 5.7097C5.29354 5.74055 5.29404 5.77277 5.29493 5.807C5.30645 6.24953 4.97697 6.64076 4.5 6.75092C3.12929 7.06752 2.11742 8.18686 2.11742 9.51617C2.11742 11.0929 3.53944 12.371 5.29354 12.371H6.35225C6.93696 12.371 7.41096 12.7971 7.41096 13.3226C7.41096 13.8482 6.93696 14.2743 6.35225 14.2743H5.29354C2.37004 14.2743 0 12.144 0 9.51617C0 7.55342 1.32148 5.87001 3.2071 5.14228C3.52397 2.25529 6.2331 0 9.52837 0C11.8825 0 13.9356 1.15082 15.0326 2.85793C18.4434 2.95784 21.1742 5.47455 21.1742 8.56455C21.1742 11.7179 18.3302 14.2743 14.8219 14.2743C14.2372 14.2743 13.7632 13.8482 13.7632 13.3226C13.7632 12.7971 14.2372 12.371 14.8219 12.371C17.1608 12.371 19.0567 10.6668 19.0567 8.56455C19.0567 6.46229 17.1608 4.75809 14.8219 4.75809C14.7047 4.75809 14.5889 4.76234 14.4745 4.77066C14.0225 4.80353 13.5974 4.57404 13.4174 4.19996C12.7663 2.84699 11.2688 1.90323 9.52837 1.90323ZM9.83846 6.94004C10.2519 6.56841 10.9223 6.56841 11.3357 6.94004L13.4531 8.84328C13.8666 9.21491 13.8666 9.81744 13.4531 10.1891C13.0397 10.5607 12.3693 10.5607 11.9559 10.1891L11.6458 9.91034V17.1291C11.6458 17.6547 11.1718 18.0807 10.5871 18.0807C10.0024 18.0807 9.52837 17.6547 9.52837 17.1291V9.91034L9.21829 10.1891C8.80483 10.5607 8.1345 10.5607 7.72105 10.1891C7.30759 9.81744 7.30759 9.21491 7.72105 8.84328L9.83846 6.94004Z" fill="white"/>
</svg>
