<svg width="22" height="21" viewBox="0 0 22 21" fill="none" xmlns="http://www.w3.org/2000/svg">
<path d="M9.52837 2.11742C7.18949 2.11742 5.29354 4.0134 5.29354 6.35225C5.29354 6.38657 5.29404 6.42241 5.29493 6.46049C5.30645 6.95282 4.97697 7.38808 4.5 7.51064C3.12929 7.86287 2.11742 9.10818 2.11742 10.5871C2.11742 12.3412 3.53944 13.7632 5.29354 13.7632H6.35225C6.93696 13.7632 7.41096 14.2372 7.41096 14.8219C7.41096 15.4066 6.93696 15.8806 6.35225 15.8806H5.29354C2.37004 15.8806 0 13.5106 0 10.5871C0 8.40345 1.32148 6.53059 3.2071 5.72097C3.52397 2.50909 6.2331 0 9.52837 0C11.8825 0 13.9356 1.28033 15.0326 3.17955C18.4434 3.2907 21.1742 6.09063 21.1742 9.52837C21.1742 13.0366 18.3302 15.8806 14.8219 15.8806C14.2372 15.8806 13.7632 15.4066 13.7632 14.8219C13.7632 14.2372 14.2372 13.7632 14.8219 13.7632C17.1608 13.7632 19.0567 11.8672 19.0567 9.52837C19.0567 7.18953 17.1608 5.29354 14.8219 5.29354C14.7047 5.29354 14.5889 5.29827 14.4745 5.30753C14.0225 5.3441 13.5974 5.08878 13.4174 4.67261C12.7663 3.16737 11.2688 2.11742 9.52837 2.11742ZM9.83846 7.72104C10.2519 7.30759 10.9222 7.30759 11.3357 7.72104L13.4531 9.83846C13.8666 10.2519 13.8666 10.9222 13.4531 11.3357C13.0397 11.7491 12.3693 11.7491 11.9559 11.3357L11.6458 11.0256V19.0567C11.6458 19.6414 11.1718 20.1154 10.5871 20.1154C10.0024 20.1154 9.52837 19.6414 9.52837 19.0567V11.0256L9.21828 11.3357C8.80483 11.7491 8.13449 11.7491 7.72104 11.3357C7.30759 10.9222 7.30759 10.2519 7.72104 9.83846L9.83846 7.72104Z" fill="#262626"/>
</svg>
