<svg width="18" height="18" viewBox="0 0 18 18" fill="none" xmlns="http://www.w3.org/2000/svg">
<path d="M15.75 9.75H16.5H15.75ZM14.8737 5.24313L14.1658 4.99542L14.8737 5.24313ZM13.4931 6.62374L13.7408 7.33165L13.4931 6.62374ZM11.4697 12.5303L10.9393 13.0607L11.4697 12.5303ZM11.4697 9.96967L10.9393 9.43934L11.4697 9.96967ZM15.5303 6.96967L15 7.5L15.5303 6.96967ZM14.25 15.75V15V15.75ZM5.25001 15.75V16.5V15.75ZM2.68935 15.3107L3.21968 14.7803L2.68935 15.3107ZM14.7489 3.02104L14.5011 3.72896L14.7489 3.02104ZM14.979 3.25115L14.271 3.49885L14.979 3.25115ZM4.12501 3.75L14.4643 3.75V2.25L4.12501 2.25V3.75ZM5.25001 16.5L14.25 16.5V15L5.25001 15V16.5ZM1.50001 4.875L1.50001 12.75H3.00001L3.00001 4.875H1.50001ZM14.25 6L4.125 6V7.5L14.25 7.5V6ZM15 12.75L15 14.25H16.5V12.75H15ZM15 8.25V9.75H16.5L16.5 8.25H15ZM12.75 13.5H15.75V12H12.75V13.5ZM15 9.75L15 12.75H16.5L16.5 9.75H15ZM15.75 9H12.75V10.5H15.75L15.75 9ZM11.7857 6H11.25L11.25 7.5H11.7857V6ZM14.25 3.53571C14.25 4.4962 14.2394 4.78518 14.1658 4.99542L15.5817 5.49084C15.7606 4.9794 15.75 4.37066 15.75 3.53571H14.25ZM11.7857 7.5C12.6207 7.5 13.2294 7.51061 13.7408 7.33165L13.2454 5.91582C13.0352 5.98939 12.7462 6 11.7857 6V7.5ZM14.1658 4.99542C14.0151 5.42629 13.6763 5.76506 13.2454 5.91582L13.7408 7.33165C14.6026 7.03011 15.2801 6.35258 15.5817 5.49084L14.1658 4.99542ZM10.5 11.25C10.5 11.5824 10.4984 11.9071 10.5341 12.1729C10.5728 12.4603 10.6669 12.7882 10.9393 13.0607L12 12C12.0527 12.0527 12.037 12.0941 12.0208 11.973C12.0016 11.8304 12 11.6248 12 11.25H10.5ZM12.75 12C12.3752 12 12.1696 11.9984 12.027 11.9792C11.9059 11.963 11.9473 11.9473 12 12L10.9393 13.0607C11.2118 13.3331 11.5397 13.4272 11.8271 13.4659C12.0929 13.5016 12.4176 13.5 12.75 13.5V12ZM12 11.25C12 10.8752 12.0016 10.6696 12.0208 10.527C12.037 10.4059 12.0527 10.4473 12 10.5L10.9393 9.43934C10.6669 9.71175 10.5728 10.0397 10.5341 10.3271C10.4984 10.5929 10.5 10.9176 10.5 11.25H12ZM12.75 9C12.4176 9 12.0929 8.99841 11.8271 9.03415C11.5397 9.07279 11.2118 9.16693 10.9393 9.43934L12 10.5C11.9473 10.5527 11.9059 10.537 12.027 10.5208C12.1696 10.5016 12.3752 10.5 12.75 10.5V9ZM14.25 7.5C14.6248 7.5 14.8304 7.50159 14.973 7.52077C15.0941 7.53705 15.0527 7.55274 15 7.5L16.0607 6.43934C15.7882 6.16693 15.4603 6.07279 15.1729 6.03415C14.9071 5.99841 14.5824 6 14.25 6V7.5ZM16.5 8.25C16.5 7.91765 16.5016 7.59294 16.4659 7.32711C16.4272 7.03971 16.3331 6.71175 16.0607 6.43934L15 7.5C14.9473 7.44726 14.963 7.40591 14.9792 7.52698C14.9984 7.66963 15 7.87524 15 8.25H16.5ZM14.25 16.5C14.5824 16.5 14.9071 16.5016 15.1729 16.4659C15.4603 16.4272 15.7882 16.3331 16.0607 16.0607L15 15C15.0527 14.9473 15.0941 14.963 14.973 14.9792C14.8304 14.9984 14.6248 15 14.25 15V16.5ZM15 14.25C15 14.6248 14.9984 14.8304 14.9792 14.973C14.963 15.0941 14.9473 15.0527 15 15L16.0607 16.0607C16.3331 15.7882 16.4272 15.4603 16.4659 15.1729C16.5016 14.9071 16.5 14.5824 16.5 14.25H15ZM5.25001 15C4.5217 15 4.05091 14.9984 3.70403 14.9518C3.37873 14.908 3.27677 14.8374 3.21968 14.7803L2.15902 15.841C2.54126 16.2232 3.01252 16.3723 3.50416 16.4384C3.97422 16.5016 4.5641 16.5 5.25001 16.5V15ZM1.50001 12.75C1.50001 13.4359 1.49841 14.0258 1.56161 14.4958C1.62771 14.9875 1.77677 15.4587 2.15902 15.841L3.21968 14.7803C3.16258 14.7232 3.09197 14.6213 3.04823 14.296C3.0016 13.9491 3.00001 13.4783 3.00001 12.75H1.50001ZM1.50001 4.875C1.50001 6.32475 2.67526 7.5 4.125 7.5V6C3.50368 6 3.00001 5.49632 3.00001 4.875H1.50001ZM14.4643 3.75C14.5029 3.75 14.531 3.75001 14.5549 3.75028C14.5788 3.75055 14.5907 3.75102 14.5963 3.75135C14.6016 3.75166 14.5934 3.75143 14.5771 3.74873C14.5594 3.7458 14.5328 3.74005 14.5011 3.72896L14.9966 2.31313C14.7858 2.23939 14.5511 2.25 14.4643 2.25V3.75ZM15.75 3.53571C15.75 3.44886 15.7606 3.21417 15.6869 3.00344L14.271 3.49885C14.26 3.46715 14.2542 3.44056 14.2513 3.42288C14.2486 3.40663 14.2483 3.39838 14.2487 3.40372C14.249 3.40926 14.2494 3.42124 14.2497 3.44509C14.25 3.46896 14.25 3.49708 14.25 3.53571H15.75ZM14.5011 3.72896C14.3934 3.69126 14.3087 3.60657 14.271 3.49885L15.6869 3.00344C15.5738 2.68028 15.3197 2.42621 14.9966 2.31313L14.5011 3.72896ZM3.00001 4.875C3.00001 4.25368 3.50368 3.75 4.12501 3.75V2.25C2.67526 2.25 1.50001 3.42525 1.50001 4.875H3.00001Z" fill="#4A4A4A"/>
</svg>
