<svg width="38" height="41" viewBox="0 0 38 41" fill="none" xmlns="http://www.w3.org/2000/svg">
<path fill-rule="evenodd" clip-rule="evenodd" d="M16.7907 19.2922L15.3032 15.9569C14.2118 13.5098 13.6661 12.2863 14.1861 11.7441C14.706 11.2018 15.8131 11.8398 18.0274 13.1159L27.9072 18.8095C29.435 19.6899 30.1989 20.1302 30.182 20.7948C30.1651 21.4594 29.3798 21.8585 27.8092 22.6567L17.7549 27.7666C15.5666 28.8788 14.4725 29.4349 13.9808 28.8811C13.4891 28.3273 14.0439 27.1638 15.1534 24.8366L16.771 21.444L23.5291 21.6567C24.077 21.6739 24.5355 21.2065 24.5531 20.6127C24.5707 20.0189 24.1408 19.5235 23.5929 19.5063L16.7907 19.2922Z" fill="white"/>
</svg>
